<svg width="47" height="38" viewBox="0 0 47 38" fill="none" xmlns="http://www.w3.org/2000/svg">
<path d="M23.1719 37.3516C21.6719 37.3516 20.3319 37.0316 19.1519 36.3916C17.9719 35.7316 17.0419 34.7716 16.3619 33.5116C15.6819 32.2516 15.3419 30.7116 15.3419 28.8916V23.9716C15.3419 21.2316 16.0919 19.1416 17.5919 17.7016C19.0919 16.2416 21.1219 15.5116 23.6819 15.5116C26.2019 15.5116 28.1419 16.2016 29.5019 17.5816C30.8619 18.9416 31.5419 20.7716 31.5419 23.0716V23.2216H28.3319V22.9816C28.3319 22.1216 28.1619 21.3516 27.8219 20.6716C27.4819 19.9716 26.9719 19.4216 26.2919 19.0216C25.6119 18.6216 24.7419 18.4216 23.6819 18.4216C22.0819 18.4216 20.8319 18.9116 19.9319 19.8916C19.0319 20.8516 18.5819 22.1916 18.5819 23.9116V28.9516C18.5819 30.6516 19.0319 32.0016 19.9319 33.0016C20.8319 33.9816 22.0919 34.4716 23.7119 34.4716C25.3119 34.4716 26.4819 34.0316 27.2219 33.1516C27.9619 32.2716 28.3319 31.1316 28.3319 29.7316V29.3416H22.6919V26.5516H31.5419V36.9316H28.5419V34.8016H28.0619C27.8819 35.1816 27.6119 35.5716 27.2519 35.9716C26.9119 36.3716 26.4119 36.7016 25.7519 36.9616C25.1119 37.2216 24.2519 37.3516 23.1719 37.3516Z" fill="#DB5D3C"/>
<path d="M9.95461 29.8223C8.45461 29.8223 7.11461 29.5023 5.93461 28.8623C4.75461 28.2023 3.82461 27.2423 3.14461 25.9823C2.46461 24.7223 2.12461 23.1823 2.12461 21.3623V16.4423C2.12461 13.7023 2.87461 11.6123 4.37461 10.1723C5.87461 8.71234 7.90461 7.98234 10.4646 7.98234C12.9846 7.98234 14.9246 8.67234 16.2846 10.0523C17.6446 11.4123 18.3246 13.2423 18.3246 15.5423V15.6923H15.1146V15.4523C15.1146 14.5923 14.9446 13.8223 14.6046 13.1423C14.2646 12.4423 13.7546 11.8923 13.0746 11.4923C12.3946 11.0923 11.5246 10.8923 10.4646 10.8923C8.86461 10.8923 7.61461 11.3823 6.71461 12.3623C5.81461 13.3223 5.36461 14.6623 5.36461 16.3823V21.4223C5.36461 23.1223 5.81461 24.4723 6.71461 25.4723C7.61461 26.4523 8.87461 26.9423 10.4946 26.9423C12.0946 26.9423 13.2646 26.5023 14.0046 25.6223C14.7446 24.7423 15.1146 23.6023 15.1146 22.2023V21.8123H9.47461V19.0223H18.3246V29.4023H15.3246V27.2723H14.8446C14.6646 27.6523 14.3946 28.0423 14.0346 28.4423C13.6946 28.8423 13.1946 29.1723 12.5346 29.4323C11.8946 29.6923 11.0346 29.8223 9.95461 29.8223Z" fill="#DB5D3C"/>
</svg>
