<svg width="34" height="34" viewBox="0 0 34 34" fill="none" xmlns="http://www.w3.org/2000/svg">
<g id="Frame" clip-path="url(#clip0_286_5547)">
<path id="Vector" d="M28.3327 15.5835C27.9862 13.0905 26.8297 10.7805 25.0413 9.00944C23.2528 7.23837 20.9317 6.10445 18.4354 5.78235C15.9391 5.46025 13.4061 5.96784 11.2267 7.22692C9.04729 8.486 7.34229 10.4267 6.37435 12.7502M5.66602 7.08349V12.7502H11.3327" stroke="white" stroke-width="2" stroke-linecap="round" stroke-linejoin="round"/>
<path id="Vector_2" d="M5.66602 18.4165C6.07215 21.3465 7.59488 24.0062 9.91602 25.8398" stroke="white" stroke-width="2" stroke-linecap="round" stroke-linejoin="round"/>
<path id="Vector_3" d="M15.584 21.25H18.4173C18.793 21.25 19.1534 21.3993 19.4191 21.6649C19.6847 21.9306 19.834 22.2909 19.834 22.6667V24.0833C19.834 24.4591 19.6847 24.8194 19.4191 25.0851C19.1534 25.3507 18.793 25.5 18.4173 25.5H17.0007C16.6249 25.5 16.2646 25.6493 15.9989 25.9149C15.7332 26.1806 15.584 26.5409 15.584 26.9167V28.3333C15.584 28.7091 15.7332 29.0694 15.9989 29.3351C16.2646 29.6007 16.6249 29.75 17.0007 29.75H19.834" stroke="white" stroke-width="2" stroke-linecap="round" stroke-linejoin="round"/>
<path id="Vector_4" d="M24.084 21.25V24.0833C24.084 24.4591 24.2332 24.8194 24.4989 25.0851C24.7646 25.3507 25.1249 25.5 25.5007 25.5H26.9173" stroke="white" stroke-width="2" stroke-linecap="round" stroke-linejoin="round"/>
<path id="Vector_5" d="M28.334 21.25V29.75" stroke="white" stroke-width="2" stroke-linecap="round" stroke-linejoin="round"/>
</g>
<defs>
<clipPath id="clip0_286_5547">
<rect width="34" height="34" fill="white"/>
</clipPath>
</defs>
</svg>
