<svg width="38" height="38" viewBox="0 0 38 38" fill="none" xmlns="http://www.w3.org/2000/svg">
<g id="Frame" clip-path="url(#clip0_286_6210)">
<path id="Vector" d="M24.5417 20.5833C23.0719 20.5833 21.6624 21.1671 20.6231 22.2064C19.5839 23.2456 19 24.6552 19 26.1249V27.7083C19 29.178 19.5839 30.5875 20.6231 31.6268C21.6624 32.6661 23.0719 33.2499 24.5417 33.2499C26.0114 33.2499 27.421 32.6661 28.4602 31.6268C29.4995 30.5875 30.0833 29.178 30.0833 27.7083V24.8583" stroke="white" stroke-width="2.5" stroke-linecap="round" stroke-linejoin="round"/>
<path id="Vector_2" d="M13.4577 20.5833C14.9274 20.5833 16.337 21.1671 17.3762 22.2064C18.4155 23.2456 18.9993 24.6552 18.9993 26.1249V27.7083C18.9993 29.178 18.4155 30.5875 17.3762 31.6268C16.337 32.6661 14.9274 33.2499 13.4577 33.2499C11.9879 33.2499 10.5784 32.6661 9.53913 31.6268C8.49987 30.5875 7.91602 29.178 7.91602 27.7083V24.8583" stroke="white" stroke-width="2.5" stroke-linecap="round" stroke-linejoin="round"/>
<path id="Vector_3" d="M27.7077 25.3333C29.1774 25.3333 30.587 24.7495 31.6262 23.7102C32.6655 22.671 33.2493 21.2614 33.2493 19.7917C33.2493 18.3219 32.6655 16.9124 31.6262 15.8731C30.587 14.8339 29.1774 14.25 27.7077 14.25H26.916" stroke="white" stroke-width="2.5" stroke-linecap="round" stroke-linejoin="round"/>
<path id="Vector_4" d="M30.0833 14.725V10.2917C30.0833 8.82193 29.4995 7.41238 28.4602 6.37312C27.421 5.33385 26.0114 4.75 24.5417 4.75C23.0719 4.75 21.6624 5.33385 20.6231 6.37312C19.5839 7.41238 19 8.82193 19 10.2917" stroke="white" stroke-width="2.5" stroke-linecap="round" stroke-linejoin="round"/>
<path id="Vector_5" d="M10.2917 25.3333C8.82192 25.3333 7.41238 24.7495 6.37312 23.7102C5.33385 22.671 4.75 21.2614 4.75 19.7917C4.75 18.3219 5.33385 16.9124 6.37312 15.8731C7.41238 14.8339 8.82192 14.25 10.2917 14.25H11.0833" stroke="white" stroke-width="2.5" stroke-linecap="round" stroke-linejoin="round"/>
<path id="Vector_6" d="M7.91602 14.725V10.2917C7.91602 8.82193 8.49987 7.41238 9.53913 6.37312C10.5784 5.33385 11.9879 4.75 13.4577 4.75C14.9274 4.75 16.337 5.33385 17.3762 6.37312C18.4155 7.41238 18.9993 8.82193 18.9993 10.2917V26.125" stroke="white" stroke-width="2.5" stroke-linecap="round" stroke-linejoin="round"/>
</g>
<defs>
<clipPath id="clip0_286_6210">
<rect width="38" height="38" fill="white"/>
</clipPath>
</defs>
</svg>
