<svg width="38" height="38" viewBox="0 0 38 38" fill="none" xmlns="http://www.w3.org/2000/svg">
<g id="Frame" clip-path="url(#clip0_286_6224)">
<path id="Vector" d="M4.75 33.2502V26.9168C4.75 25.6642 5.12144 24.4397 5.81736 23.3982C6.51327 22.3567 7.50241 21.545 8.65967 21.0656C9.81694 20.5862 11.0904 20.4608 12.3189 20.7052C13.5475 20.9496 14.6759 21.5528 15.5617 22.4385C16.4474 23.3242 17.0506 24.4527 17.295 25.6813C17.5393 26.9098 17.4139 28.1832 16.9346 29.3405C16.4552 30.4978 15.6435 31.4869 14.6019 32.1828C13.5604 32.8787 12.3359 33.2502 11.0833 33.2502H4.75Z" stroke="white" stroke-width="2.5" stroke-linecap="round" stroke-linejoin="round"/>
<path id="Vector_2" d="M33.2491 4.75C28.73 5.36813 24.4616 7.19489 20.8944 10.0375C17.3273 12.88 14.5938 16.6329 12.9824 20.9" stroke="white" stroke-width="2.5" stroke-linecap="round" stroke-linejoin="round"/>
<path id="Vector_3" d="M33.2496 4.75C32.6315 9.26912 30.8047 13.5375 27.9622 17.1047C25.1196 20.6718 21.3667 23.4053 17.0996 25.0167" stroke="white" stroke-width="2.5" stroke-linecap="round" stroke-linejoin="round"/>
<path id="Vector_4" d="M16.7832 14.25C19.8599 15.67 22.3298 18.14 23.7499 21.2167" stroke="white" stroke-width="2.5" stroke-linecap="round" stroke-linejoin="round"/>
</g>
<defs>
<clipPath id="clip0_286_6224">
<rect width="38" height="38" fill="white"/>
</clipPath>
</defs>
</svg>
