<svg width="383" height="271" viewBox="0 0 383 271" fill="none" xmlns="http://www.w3.org/2000/svg">
<rect y="0.132812" width="383" height="270.764" rx="12.3372" fill="white"/>
<path d="M42.9036 247.452C42.1943 247.452 41.5223 247.34 40.8876 247.116C40.2623 246.883 39.7583 246.575 39.3756 246.192L39.8656 245.394C40.183 245.721 40.6076 245.991 41.1396 246.206C41.681 246.421 42.269 246.528 42.9036 246.528C43.7156 246.528 44.3363 246.351 44.7656 245.996C45.2043 245.641 45.4236 245.165 45.4236 244.568C45.4236 243.971 45.209 243.495 44.7796 243.14C44.3596 242.785 43.6923 242.608 42.7776 242.608H42.0776V241.866L45.1016 238.072L45.2416 238.464H39.7816V237.568H46.0816V238.282L43.0576 242.076L42.5676 241.754H42.9456C44.1216 241.754 44.999 242.015 45.5776 242.538C46.1656 243.061 46.4596 243.733 46.4596 244.554C46.4596 245.105 46.329 245.599 46.0676 246.038C45.8063 246.477 45.4096 246.822 44.8776 247.074C44.355 247.326 43.697 247.452 42.9036 247.452ZM51.786 247.452C51.03 247.452 50.358 247.256 49.77 246.864C49.182 246.463 48.72 245.893 48.384 245.156C48.048 244.409 47.88 243.513 47.88 242.468C47.88 241.423 48.048 240.531 48.384 239.794C48.72 239.047 49.182 238.478 49.77 238.086C50.358 237.685 51.03 237.484 51.786 237.484C52.542 237.484 53.214 237.685 53.802 238.086C54.39 238.478 54.852 239.047 55.188 239.794C55.5333 240.531 55.706 241.423 55.706 242.468C55.706 243.513 55.5333 244.409 55.188 245.156C54.852 245.893 54.39 246.463 53.802 246.864C53.214 247.256 52.542 247.452 51.786 247.452ZM51.786 246.528C52.3646 246.528 52.8686 246.374 53.298 246.066C53.7273 245.749 54.0633 245.291 54.306 244.694C54.5486 244.087 54.67 243.345 54.67 242.468C54.67 241.591 54.5486 240.853 54.306 240.256C54.0633 239.649 53.7273 239.192 53.298 238.884C52.8686 238.567 52.3646 238.408 51.786 238.408C51.226 238.408 50.7266 238.567 50.288 238.884C49.8493 239.192 49.5086 239.649 49.266 240.256C49.0233 240.853 48.902 241.591 48.902 242.468C48.902 243.345 49.0233 244.087 49.266 244.694C49.5086 245.291 49.8493 245.749 50.288 246.066C50.7266 246.374 51.226 246.528 51.786 246.528Z" fill="black"/>
<path d="M92.8587 247.452C92.1494 247.452 91.4774 247.34 90.8427 247.116C90.2174 246.883 89.7134 246.575 89.3307 246.192L89.8207 245.394C90.138 245.721 90.5627 245.991 91.0947 246.206C91.636 246.421 92.224 246.528 92.8587 246.528C93.6707 246.528 94.2914 246.351 94.7207 245.996C95.1594 245.641 95.3787 245.165 95.3787 244.568C95.3787 243.971 95.164 243.495 94.7347 243.14C94.3147 242.785 93.6474 242.608 92.7327 242.608H92.0327V241.866L95.0567 238.072L95.1967 238.464H89.7367V237.568H96.0367V238.282L93.0127 242.076L92.5227 241.754H92.9007C94.0767 241.754 94.954 242.015 95.5327 242.538C96.1207 243.061 96.4147 243.733 96.4147 244.554C96.4147 245.105 96.284 245.599 96.0227 246.038C95.7614 246.477 95.3647 246.822 94.8327 247.074C94.31 247.326 93.652 247.452 92.8587 247.452ZM99.5431 247.368V237.988L99.9911 238.464H97.2331V237.568H100.551V247.368H99.5431Z" fill="black"/>
<path d="M40.571 220.812V220.098L44.645 216.108C45.0184 215.744 45.2984 215.426 45.485 215.156C45.6717 214.876 45.7977 214.614 45.863 214.372C45.9284 214.129 45.961 213.9 45.961 213.686C45.961 213.116 45.765 212.668 45.373 212.342C44.9904 212.015 44.421 211.852 43.665 211.852C43.0864 211.852 42.573 211.94 42.125 212.118C41.6864 212.295 41.3084 212.57 40.991 212.944L40.277 212.328C40.6597 211.88 41.1497 211.534 41.747 211.292C42.3444 211.049 43.0117 210.928 43.749 210.928C44.4117 210.928 44.9857 211.035 45.471 211.25C45.9564 211.455 46.3297 211.758 46.591 212.16C46.8617 212.561 46.997 213.032 46.997 213.574C46.997 213.891 46.9504 214.204 46.857 214.512C46.773 214.82 46.6144 215.146 46.381 215.492C46.157 215.828 45.8257 216.21 45.387 216.64L41.649 220.308L41.369 219.916H47.445V220.812H40.571ZM51.6361 220.896C50.9267 220.896 50.2547 220.784 49.6201 220.56C48.9947 220.326 48.4907 220.018 48.1081 219.636L48.5981 218.838C48.9154 219.164 49.3401 219.435 49.8721 219.65C50.4134 219.864 51.0014 219.972 51.6361 219.972C52.4481 219.972 53.0687 219.794 53.4981 219.44C53.9367 219.085 54.1561 218.609 54.1561 218.012C54.1561 217.414 53.9414 216.938 53.5121 216.584C53.0921 216.229 52.4247 216.052 51.5101 216.052H50.8101V215.31L53.8341 211.516L53.9741 211.908H48.5141V211.012H54.8141V211.726L51.7901 215.52L51.3001 215.198H51.6781C52.8541 215.198 53.7314 215.459 54.3101 215.982C54.8981 216.504 55.1921 217.176 55.1921 217.998C55.1921 218.548 55.0614 219.043 54.8001 219.482C54.5387 219.92 54.1421 220.266 53.6101 220.518C53.0874 220.77 52.4294 220.896 51.6361 220.896Z" fill="black"/>
<path d="M87.9011 220.812V220.098L91.9751 216.108C92.3484 215.744 92.6284 215.426 92.8151 215.156C93.0018 214.876 93.1278 214.614 93.1931 214.372C93.2584 214.129 93.2911 213.9 93.2911 213.686C93.2911 213.116 93.0951 212.668 92.7031 212.342C92.3204 212.015 91.7511 211.852 90.9951 211.852C90.4164 211.852 89.9031 211.94 89.4551 212.118C89.0164 212.295 88.6384 212.57 88.3211 212.944L87.6071 212.328C87.9898 211.88 88.4798 211.534 89.0771 211.292C89.6744 211.049 90.3418 210.928 91.0791 210.928C91.7418 210.928 92.3158 211.035 92.8011 211.25C93.2864 211.455 93.6598 211.758 93.9211 212.16C94.1918 212.561 94.3271 213.032 94.3271 213.574C94.3271 213.891 94.2804 214.204 94.1871 214.512C94.1031 214.82 93.9444 215.146 93.7111 215.492C93.4871 215.828 93.1558 216.21 92.7171 216.64L88.9791 220.308L88.6991 219.916H94.7751V220.812H87.9011ZM95.5577 218.236V217.508L100.752 211.012H101.872L96.7197 217.508L96.1737 217.34H104.056V218.236H95.5577ZM101.088 220.812V218.236L101.116 217.34V215.072H102.096V220.812H101.088Z" fill="black"/>
<path d="M136.257 220.812V220.098L140.331 216.108C140.704 215.744 140.984 215.426 141.171 215.156C141.357 214.876 141.483 214.614 141.549 214.372C141.614 214.129 141.647 213.9 141.647 213.686C141.647 213.116 141.451 212.668 141.059 212.342C140.676 212.015 140.107 211.852 139.351 211.852C138.772 211.852 138.259 211.94 137.811 212.118C137.372 212.295 136.994 212.57 136.677 212.944L135.963 212.328C136.345 211.88 136.835 211.534 137.433 211.292C138.03 211.049 138.697 210.928 139.435 210.928C140.097 210.928 140.671 211.035 141.157 211.25C141.642 211.455 142.015 211.758 142.277 212.16C142.547 212.561 142.683 213.032 142.683 213.574C142.683 213.891 142.636 214.204 142.543 214.512C142.459 214.82 142.3 215.146 142.067 215.492C141.843 215.828 141.511 216.21 141.073 216.64L137.335 220.308L137.055 219.916H143.131V220.812H136.257ZM147.49 220.896C146.79 220.896 146.122 220.784 145.488 220.56C144.853 220.326 144.349 220.018 143.976 219.636L144.466 218.838C144.774 219.164 145.194 219.435 145.726 219.65C146.267 219.864 146.85 219.972 147.476 219.972C148.306 219.972 148.936 219.79 149.366 219.426C149.804 219.052 150.024 218.567 150.024 217.97C150.024 217.55 149.921 217.19 149.716 216.892C149.52 216.584 149.184 216.346 148.708 216.178C148.232 216.01 147.578 215.926 146.748 215.926H144.662L145.166 211.012H150.528V211.908H145.572L146.09 211.418L145.656 215.534L145.138 215.03H146.972C147.961 215.03 148.754 215.151 149.352 215.394C149.949 215.636 150.378 215.977 150.64 216.416C150.91 216.845 151.046 217.349 151.046 217.928C151.046 218.478 150.915 218.982 150.654 219.44C150.392 219.888 150 220.242 149.478 220.504C148.955 220.765 148.292 220.896 147.49 220.896Z" fill="black"/>
<path d="M183.821 220.812V220.098L187.895 216.108C188.268 215.744 188.548 215.426 188.735 215.156C188.922 214.876 189.048 214.614 189.113 214.372C189.178 214.129 189.211 213.9 189.211 213.686C189.211 213.116 189.015 212.668 188.623 212.342C188.24 212.015 187.671 211.852 186.915 211.852C186.336 211.852 185.823 211.94 185.375 212.118C184.936 212.295 184.558 212.57 184.241 212.944L183.527 212.328C183.91 211.88 184.4 211.534 184.997 211.292C185.594 211.049 186.262 210.928 186.999 210.928C187.662 210.928 188.236 211.035 188.721 211.25C189.206 211.455 189.58 211.758 189.841 212.16C190.112 212.561 190.247 213.032 190.247 213.574C190.247 213.891 190.2 214.204 190.107 214.512C190.023 214.82 189.864 215.146 189.631 215.492C189.407 215.828 189.076 216.21 188.637 216.64L184.899 220.308L184.619 219.916H190.695V220.812H183.821ZM195.951 220.896C195.083 220.896 194.35 220.704 193.753 220.322C193.155 219.93 192.703 219.37 192.395 218.642C192.087 217.904 191.933 217.022 191.933 215.996C191.933 214.885 192.119 213.956 192.493 213.21C192.875 212.454 193.403 211.884 194.075 211.502C194.747 211.119 195.526 210.928 196.413 210.928C196.851 210.928 197.271 210.97 197.673 211.054C198.074 211.138 198.429 211.273 198.737 211.46L198.331 212.272C198.079 212.104 197.789 211.987 197.463 211.922C197.136 211.847 196.791 211.81 196.427 211.81C195.372 211.81 194.527 212.146 193.893 212.818C193.267 213.49 192.955 214.493 192.955 215.828C192.955 216.033 192.964 216.29 192.983 216.598C193.011 216.896 193.067 217.195 193.151 217.494L192.801 217.228C192.903 216.742 193.104 216.332 193.403 215.996C193.701 215.65 194.075 215.389 194.523 215.212C194.971 215.034 195.461 214.946 195.993 214.946C196.646 214.946 197.22 215.067 197.715 215.31C198.209 215.552 198.597 215.893 198.877 216.332C199.157 216.77 199.297 217.288 199.297 217.886C199.297 218.492 199.152 219.024 198.863 219.482C198.573 219.93 198.172 220.28 197.659 220.532C197.155 220.774 196.585 220.896 195.951 220.896ZM195.909 220.042C196.375 220.042 196.786 219.958 197.141 219.79C197.505 219.612 197.789 219.365 197.995 219.048C198.2 218.721 198.303 218.343 198.303 217.914C198.303 217.27 198.079 216.756 197.631 216.374C197.192 215.991 196.595 215.8 195.839 215.8C195.335 215.8 194.896 215.893 194.523 216.08C194.149 216.266 193.855 216.523 193.641 216.85C193.426 217.167 193.319 217.531 193.319 217.942C193.319 218.296 193.417 218.637 193.613 218.964C193.809 219.281 194.098 219.542 194.481 219.748C194.873 219.944 195.349 220.042 195.909 220.042Z" fill="black"/>
<path d="M231.814 220.812V220.098L235.888 216.108C236.262 215.744 236.542 215.426 236.728 215.156C236.915 214.876 237.041 214.614 237.106 214.372C237.172 214.129 237.204 213.9 237.204 213.686C237.204 213.116 237.008 212.668 236.616 212.342C236.234 212.015 235.664 211.852 234.908 211.852C234.33 211.852 233.816 211.94 233.368 212.118C232.93 212.295 232.552 212.57 232.234 212.944L231.52 212.328C231.903 211.88 232.393 211.534 232.99 211.292C233.588 211.049 234.255 210.928 234.992 210.928C235.655 210.928 236.229 211.035 236.714 211.25C237.2 211.455 237.573 211.758 237.834 212.16C238.105 212.561 238.24 213.032 238.24 213.574C238.24 213.891 238.194 214.204 238.1 214.512C238.016 214.82 237.858 215.146 237.624 215.492C237.4 215.828 237.069 216.21 236.63 216.64L232.892 220.308L232.612 219.916H238.688V220.812H231.814ZM241.648 220.812L245.876 211.46L246.184 211.908H240.122L240.64 211.418V213.742H239.646V211.012H246.842V211.726L242.74 220.812H241.648Z" fill="black"/>
<path d="M279.308 220.812V220.098L283.382 216.108C283.756 215.744 284.036 215.426 284.222 215.156C284.409 214.876 284.535 214.614 284.6 214.372C284.666 214.129 284.698 213.9 284.698 213.686C284.698 213.116 284.502 212.668 284.11 212.342C283.728 212.015 283.158 211.852 282.402 211.852C281.824 211.852 281.31 211.94 280.862 212.118C280.424 212.295 280.046 212.57 279.728 212.944L279.014 212.328C279.397 211.88 279.887 211.534 280.484 211.292C281.082 211.049 281.749 210.928 282.486 210.928C283.149 210.928 283.723 211.035 284.208 211.25C284.694 211.455 285.067 211.758 285.328 212.16C285.599 212.561 285.734 213.032 285.734 213.574C285.734 213.891 285.688 214.204 285.594 214.512C285.51 214.82 285.352 215.146 285.118 215.492C284.894 215.828 284.563 216.21 284.124 216.64L280.386 220.308L280.106 219.916H286.182V220.812H279.308ZM291.171 220.896C290.387 220.896 289.711 220.784 289.141 220.56C288.581 220.336 288.147 220.014 287.839 219.594C287.541 219.164 287.391 218.66 287.391 218.082C287.391 217.522 287.536 217.046 287.825 216.654C288.124 216.252 288.553 215.944 289.113 215.73C289.683 215.515 290.369 215.408 291.171 215.408C291.965 215.408 292.646 215.515 293.215 215.73C293.785 215.944 294.219 216.252 294.517 216.654C294.825 217.046 294.979 217.522 294.979 218.082C294.979 218.66 294.825 219.164 294.517 219.594C294.209 220.014 293.771 220.336 293.201 220.56C292.632 220.784 291.955 220.896 291.171 220.896ZM291.171 220.042C292.039 220.042 292.716 219.864 293.201 219.51C293.696 219.155 293.943 218.674 293.943 218.068C293.943 217.461 293.696 216.985 293.201 216.64C292.716 216.285 292.039 216.108 291.171 216.108C290.303 216.108 289.627 216.285 289.141 216.64C288.656 216.985 288.413 217.461 288.413 218.068C288.413 218.674 288.656 219.155 289.141 219.51C289.627 219.864 290.303 220.042 291.171 220.042ZM291.171 215.982C290.443 215.982 289.823 215.884 289.309 215.688C288.805 215.492 288.418 215.212 288.147 214.848C287.877 214.474 287.741 214.031 287.741 213.518C287.741 212.976 287.881 212.514 288.161 212.132C288.451 211.74 288.852 211.441 289.365 211.236C289.879 211.03 290.481 210.928 291.171 210.928C291.862 210.928 292.464 211.03 292.977 211.236C293.5 211.441 293.906 211.74 294.195 212.132C294.485 212.514 294.629 212.976 294.629 213.518C294.629 214.031 294.494 214.474 294.223 214.848C293.953 215.212 293.556 215.492 293.033 215.688C292.52 215.884 291.899 215.982 291.171 215.982ZM291.171 215.31C291.937 215.31 292.534 215.151 292.963 214.834C293.393 214.516 293.607 214.092 293.607 213.56C293.607 213 293.383 212.566 292.935 212.258C292.497 211.94 291.909 211.782 291.171 211.782C290.434 211.782 289.846 211.94 289.407 212.258C288.969 212.566 288.749 212.995 288.749 213.546C288.749 214.087 288.959 214.516 289.379 214.834C289.809 215.151 290.406 215.31 291.171 215.31Z" fill="#3F83F8"/>
<path d="M327.356 220.812V220.098L331.43 216.108C331.804 215.744 332.084 215.426 332.27 215.156C332.457 214.876 332.583 214.614 332.648 214.372C332.714 214.129 332.746 213.9 332.746 213.686C332.746 213.116 332.55 212.668 332.158 212.342C331.776 212.015 331.206 211.852 330.45 211.852C329.872 211.852 329.358 211.94 328.91 212.118C328.472 212.295 328.094 212.57 327.776 212.944L327.062 212.328C327.445 211.88 327.935 211.534 328.532 211.292C329.13 211.049 329.797 210.928 330.534 210.928C331.197 210.928 331.771 211.035 332.256 211.25C332.742 211.455 333.115 211.758 333.376 212.16C333.647 212.561 333.782 213.032 333.782 213.574C333.782 213.891 333.736 214.204 333.642 214.512C333.558 214.82 333.4 215.146 333.166 215.492C332.942 215.828 332.611 216.21 332.172 216.64L328.434 220.308L328.154 219.916H334.23V220.812H327.356ZM338.547 210.928C339.415 210.928 340.148 211.124 340.745 211.516C341.343 211.898 341.795 212.454 342.103 213.182C342.411 213.91 342.565 214.792 342.565 215.828C342.565 216.929 342.374 217.858 341.991 218.614C341.618 219.37 341.095 219.939 340.423 220.322C339.751 220.704 338.972 220.896 338.085 220.896C337.647 220.896 337.227 220.854 336.825 220.77C336.433 220.686 336.079 220.55 335.761 220.364L336.167 219.552C336.419 219.72 336.709 219.841 337.035 219.916C337.371 219.981 337.717 220.014 338.071 220.014C339.126 220.014 339.966 219.678 340.591 219.006C341.226 218.334 341.543 217.33 341.543 215.996C341.543 215.781 341.529 215.524 341.501 215.226C341.483 214.927 341.431 214.628 341.347 214.33L341.697 214.596C341.604 215.081 341.403 215.496 341.095 215.842C340.797 216.178 340.423 216.434 339.975 216.612C339.537 216.789 339.047 216.878 338.505 216.878C337.861 216.878 337.287 216.756 336.783 216.514C336.289 216.271 335.901 215.93 335.621 215.492C335.341 215.053 335.201 214.535 335.201 213.938C335.201 213.322 335.346 212.79 335.635 212.342C335.925 211.894 336.321 211.548 336.825 211.306C337.339 211.054 337.913 210.928 338.547 210.928ZM338.589 211.782C338.123 211.782 337.707 211.87 337.343 212.048C336.989 212.216 336.709 212.458 336.503 212.776C336.298 213.093 336.195 213.471 336.195 213.91C336.195 214.554 336.415 215.067 336.853 215.45C337.301 215.832 337.903 216.024 338.659 216.024C339.163 216.024 339.602 215.93 339.975 215.744C340.358 215.557 340.652 215.3 340.857 214.974C341.072 214.647 341.179 214.283 341.179 213.882C341.179 213.518 341.081 213.177 340.885 212.86C340.689 212.542 340.4 212.286 340.017 212.09C339.635 211.884 339.159 211.782 338.589 211.782Z" fill="#3F83F8"/>
<path d="M43.5958 194.255V184.875L44.0438 185.351H41.2858V184.455H44.6038V194.255H43.5958ZM50.9644 194.339C50.0964 194.339 49.3637 194.148 48.7664 193.765C48.1691 193.373 47.7164 192.813 47.4084 192.085C47.1004 191.348 46.9464 190.466 46.9464 189.439C46.9464 188.328 47.1331 187.4 47.5064 186.653C47.8891 185.897 48.4164 185.328 49.0884 184.945C49.7604 184.562 50.5397 184.371 51.4264 184.371C51.8651 184.371 52.2851 184.413 52.6864 184.497C53.0877 184.581 53.4424 184.716 53.7504 184.903L53.3444 185.715C53.0924 185.547 52.8031 185.43 52.4764 185.365C52.1497 185.29 51.8044 185.253 51.4404 185.253C50.3857 185.253 49.5411 185.589 48.9064 186.261C48.2811 186.933 47.9684 187.936 47.9684 189.271C47.9684 189.476 47.9777 189.733 47.9964 190.041C48.0244 190.34 48.0804 190.638 48.1644 190.937L47.8144 190.671C47.9171 190.186 48.1177 189.775 48.4164 189.439C48.7151 189.094 49.0884 188.832 49.5364 188.655C49.9844 188.478 50.4744 188.389 51.0064 188.389C51.6597 188.389 52.2337 188.51 52.7284 188.753C53.2231 188.996 53.6104 189.336 53.8904 189.775C54.1704 190.214 54.3104 190.732 54.3104 191.329C54.3104 191.936 54.1657 192.468 53.8764 192.925C53.5871 193.373 53.1857 193.723 52.6724 193.975C52.1684 194.218 51.5991 194.339 50.9644 194.339ZM50.9224 193.485C51.3891 193.485 51.7997 193.401 52.1544 193.233C52.5184 193.056 52.8031 192.808 53.0084 192.491C53.2137 192.164 53.3164 191.786 53.3164 191.357C53.3164 190.713 53.0924 190.2 52.6444 189.817C52.2057 189.434 51.6084 189.243 50.8524 189.243C50.3484 189.243 49.9097 189.336 49.5364 189.523C49.1631 189.71 48.8691 189.966 48.6544 190.293C48.4397 190.61 48.3324 190.974 48.3324 191.385C48.3324 191.74 48.4304 192.08 48.6264 192.407C48.8224 192.724 49.1117 192.986 49.4944 193.191C49.8864 193.387 50.3624 193.485 50.9224 193.485Z" fill="black"/>
<path d="M91.589 194.255V184.875L92.037 185.351H89.279V184.455H92.597V194.255H91.589ZM96.6616 194.255L100.89 184.903L101.198 185.351H95.1356L95.6536 184.861V187.185H94.6596V184.455H101.856V185.169L97.7536 194.255H96.6616Z" fill="black"/>
<path d="M139.097 194.255V184.875L139.545 185.351H136.787V184.455H140.105V194.255H139.097ZM146.171 194.339C145.387 194.339 144.711 194.227 144.141 194.003C143.581 193.779 143.147 193.457 142.839 193.037C142.541 192.608 142.391 192.104 142.391 191.525C142.391 190.965 142.536 190.489 142.825 190.097C143.124 189.696 143.553 189.388 144.113 189.173C144.683 188.958 145.369 188.851 146.171 188.851C146.965 188.851 147.646 188.958 148.215 189.173C148.785 189.388 149.219 189.696 149.517 190.097C149.825 190.489 149.979 190.965 149.979 191.525C149.979 192.104 149.825 192.608 149.517 193.037C149.209 193.457 148.771 193.779 148.201 194.003C147.632 194.227 146.955 194.339 146.171 194.339ZM146.171 193.485C147.039 193.485 147.716 193.308 148.201 192.953C148.696 192.598 148.943 192.118 148.943 191.511C148.943 190.904 148.696 190.428 148.201 190.083C147.716 189.728 147.039 189.551 146.171 189.551C145.303 189.551 144.627 189.728 144.141 190.083C143.656 190.428 143.413 190.904 143.413 191.511C143.413 192.118 143.656 192.598 144.141 192.953C144.627 193.308 145.303 193.485 146.171 193.485ZM146.171 189.425C145.443 189.425 144.823 189.327 144.309 189.131C143.805 188.935 143.418 188.655 143.147 188.291C142.877 187.918 142.741 187.474 142.741 186.961C142.741 186.42 142.881 185.958 143.161 185.575C143.451 185.183 143.852 184.884 144.365 184.679C144.879 184.474 145.481 184.371 146.171 184.371C146.862 184.371 147.464 184.474 147.977 184.679C148.5 184.884 148.906 185.183 149.195 185.575C149.485 185.958 149.629 186.42 149.629 186.961C149.629 187.474 149.494 187.918 149.223 188.291C148.953 188.655 148.556 188.935 148.033 189.131C147.52 189.327 146.899 189.425 146.171 189.425ZM146.171 188.753C146.937 188.753 147.534 188.594 147.963 188.277C148.393 187.96 148.607 187.535 148.607 187.003C148.607 186.443 148.383 186.009 147.935 185.701C147.497 185.384 146.909 185.225 146.171 185.225C145.434 185.225 144.846 185.384 144.407 185.701C143.969 186.009 143.749 186.438 143.749 186.989C143.749 187.53 143.959 187.96 144.379 188.277C144.809 188.594 145.406 188.753 146.171 188.753Z" fill="black"/>
<path d="M187.147 194.255V184.875L187.595 185.351H184.837V184.455H188.155V194.255H187.147ZM193.549 184.371C194.417 184.371 195.15 184.567 195.747 184.959C196.345 185.342 196.797 185.897 197.105 186.625C197.413 187.353 197.567 188.235 197.567 189.271C197.567 190.372 197.376 191.301 196.993 192.057C196.62 192.813 196.097 193.382 195.425 193.765C194.753 194.148 193.974 194.339 193.087 194.339C192.649 194.339 192.229 194.297 191.827 194.213C191.435 194.129 191.081 193.994 190.763 193.807L191.169 192.995C191.421 193.163 191.711 193.284 192.037 193.359C192.373 193.424 192.719 193.457 193.073 193.457C194.128 193.457 194.968 193.121 195.593 192.449C196.228 191.777 196.545 190.774 196.545 189.439C196.545 189.224 196.531 188.968 196.503 188.669C196.485 188.37 196.433 188.072 196.349 187.773L196.699 188.039C196.606 188.524 196.405 188.94 196.097 189.285C195.799 189.621 195.425 189.878 194.977 190.055C194.539 190.232 194.049 190.321 193.507 190.321C192.863 190.321 192.289 190.2 191.785 189.957C191.291 189.714 190.903 189.374 190.623 188.935C190.343 188.496 190.203 187.978 190.203 187.381C190.203 186.765 190.348 186.233 190.637 185.785C190.927 185.337 191.323 184.992 191.827 184.749C192.341 184.497 192.915 184.371 193.549 184.371ZM193.591 185.225C193.125 185.225 192.709 185.314 192.345 185.491C191.991 185.659 191.711 185.902 191.505 186.219C191.3 186.536 191.197 186.914 191.197 187.353C191.197 187.997 191.417 188.51 191.855 188.893C192.303 189.276 192.905 189.467 193.661 189.467C194.165 189.467 194.604 189.374 194.977 189.187C195.36 189 195.654 188.744 195.859 188.417C196.074 188.09 196.181 187.726 196.181 187.325C196.181 186.961 196.083 186.62 195.887 186.303C195.691 185.986 195.402 185.729 195.019 185.533C194.637 185.328 194.161 185.225 193.591 185.225Z" fill="black"/>
<path d="M231.301 194.255V193.541L235.375 189.551C235.749 189.187 236.029 188.87 236.215 188.599C236.402 188.319 236.528 188.058 236.593 187.815C236.659 187.572 236.691 187.344 236.691 187.129C236.691 186.56 236.495 186.112 236.103 185.785C235.721 185.458 235.151 185.295 234.395 185.295C233.817 185.295 233.303 185.384 232.855 185.561C232.417 185.738 232.039 186.014 231.721 186.387L231.007 185.771C231.39 185.323 231.88 184.978 232.477 184.735C233.075 184.492 233.742 184.371 234.479 184.371C235.142 184.371 235.716 184.478 236.201 184.693C236.687 184.898 237.06 185.202 237.321 185.603C237.592 186.004 237.727 186.476 237.727 187.017C237.727 187.334 237.681 187.647 237.587 187.955C237.503 188.263 237.345 188.59 237.111 188.935C236.887 189.271 236.556 189.654 236.117 190.083L232.379 193.751L232.099 193.359H238.175V194.255H231.301ZM243.319 194.339C242.563 194.339 241.891 194.143 241.303 193.751C240.715 193.35 240.253 192.78 239.917 192.043C239.581 191.296 239.413 190.4 239.413 189.355C239.413 188.31 239.581 187.418 239.917 186.681C240.253 185.934 240.715 185.365 241.303 184.973C241.891 184.572 242.563 184.371 243.319 184.371C244.075 184.371 244.747 184.572 245.335 184.973C245.923 185.365 246.385 185.934 246.721 186.681C247.067 187.418 247.239 188.31 247.239 189.355C247.239 190.4 247.067 191.296 246.721 192.043C246.385 192.78 245.923 193.35 245.335 193.751C244.747 194.143 244.075 194.339 243.319 194.339ZM243.319 193.415C243.898 193.415 244.402 193.261 244.831 192.953C245.261 192.636 245.597 192.178 245.839 191.581C246.082 190.974 246.203 190.232 246.203 189.355C246.203 188.478 246.082 187.74 245.839 187.143C245.597 186.536 245.261 186.079 244.831 185.771C244.402 185.454 243.898 185.295 243.319 185.295C242.759 185.295 242.26 185.454 241.821 185.771C241.383 186.079 241.042 186.536 240.799 187.143C240.557 187.74 240.435 188.478 240.435 189.355C240.435 190.232 240.557 190.974 240.799 191.581C241.042 192.178 241.383 192.636 241.821 192.953C242.26 193.261 242.759 193.415 243.319 193.415Z" fill="black"/>
<path d="M281.243 194.255V193.541L285.317 189.551C285.69 189.187 285.97 188.87 286.157 188.599C286.344 188.319 286.47 188.058 286.535 187.815C286.6 187.572 286.633 187.344 286.633 187.129C286.633 186.56 286.437 186.112 286.045 185.785C285.662 185.458 285.093 185.295 284.337 185.295C283.758 185.295 283.245 185.384 282.797 185.561C282.358 185.738 281.98 186.014 281.663 186.387L280.949 185.771C281.332 185.323 281.822 184.978 282.419 184.735C283.016 184.492 283.684 184.371 284.421 184.371C285.084 184.371 285.658 184.478 286.143 184.693C286.628 184.898 287.002 185.202 287.263 185.603C287.534 186.004 287.669 186.476 287.669 187.017C287.669 187.334 287.622 187.647 287.529 187.955C287.445 188.263 287.286 188.59 287.053 188.935C286.829 189.271 286.498 189.654 286.059 190.083L282.321 193.751L282.041 193.359H288.117V194.255H281.243ZM291.09 194.255V184.875L291.538 185.351H288.78V184.455H292.098V194.255H291.09Z" fill="#3F83F8"/>
<path d="M327.643 194.255V193.541L331.717 189.551C332.091 189.187 332.371 188.87 332.557 188.599C332.744 188.319 332.87 188.058 332.935 187.815C333.001 187.572 333.033 187.344 333.033 187.129C333.033 186.56 332.837 186.112 332.445 185.785C332.063 185.458 331.493 185.295 330.737 185.295C330.159 185.295 329.645 185.384 329.197 185.561C328.759 185.738 328.381 186.014 328.063 186.387L327.349 185.771C327.732 185.323 328.222 184.978 328.819 184.735C329.417 184.492 330.084 184.371 330.821 184.371C331.484 184.371 332.058 184.478 332.543 184.693C333.029 184.898 333.402 185.202 333.663 185.603C333.934 186.004 334.069 186.476 334.069 187.017C334.069 187.334 334.023 187.647 333.929 187.955C333.845 188.263 333.687 188.59 333.453 188.935C333.229 189.271 332.898 189.654 332.459 190.083L328.721 193.751L328.441 193.359H334.517V194.255H327.643ZM335.6 194.255V193.541L339.674 189.551C340.048 189.187 340.328 188.87 340.514 188.599C340.701 188.319 340.827 188.058 340.892 187.815C340.958 187.572 340.99 187.344 340.99 187.129C340.99 186.56 340.794 186.112 340.402 185.785C340.02 185.458 339.45 185.295 338.694 185.295C338.116 185.295 337.602 185.384 337.154 185.561C336.716 185.738 336.338 186.014 336.02 186.387L335.306 185.771C335.689 185.323 336.179 184.978 336.776 184.735C337.374 184.492 338.041 184.371 338.778 184.371C339.441 184.371 340.015 184.478 340.5 184.693C340.986 184.898 341.359 185.202 341.62 185.603C341.891 186.004 342.026 186.476 342.026 187.017C342.026 187.334 341.98 187.647 341.886 187.955C341.802 188.263 341.644 188.59 341.41 188.935C341.186 189.271 340.855 189.654 340.416 190.083L336.678 193.751L336.398 193.359H342.474V194.255H335.6Z" fill="#3F83F8"/>
<path d="M47.4691 157.814C48.3371 157.814 49.0698 158.01 49.6671 158.402C50.2644 158.785 50.7171 159.34 51.0251 160.068C51.3331 160.796 51.4871 161.678 51.4871 162.714C51.4871 163.816 51.2958 164.744 50.9131 165.5C50.5398 166.256 50.0171 166.826 49.3451 167.208C48.6731 167.591 47.8938 167.782 47.0071 167.782C46.5684 167.782 46.1484 167.74 45.7471 167.656C45.3551 167.572 45.0004 167.437 44.6831 167.25L45.0891 166.438C45.3411 166.606 45.6304 166.728 45.9571 166.802C46.2931 166.868 46.6384 166.9 46.9931 166.9C48.0478 166.9 48.8878 166.564 49.5131 165.892C50.1478 165.22 50.4651 164.217 50.4651 162.882C50.4651 162.668 50.4511 162.411 50.4231 162.112C50.4044 161.814 50.3531 161.515 50.2691 161.216L50.6191 161.482C50.5258 161.968 50.3251 162.383 50.0171 162.728C49.7184 163.064 49.3451 163.321 48.8971 163.498C48.4584 163.676 47.9684 163.764 47.4271 163.764C46.7831 163.764 46.2091 163.643 45.7051 163.4C45.2104 163.158 44.8231 162.817 44.5431 162.378C44.2631 161.94 44.1231 161.422 44.1231 160.824C44.1231 160.208 44.2678 159.676 44.5571 159.228C44.8464 158.78 45.2431 158.435 45.7471 158.192C46.2604 157.94 46.8344 157.814 47.4691 157.814ZM47.5111 158.668C47.0444 158.668 46.6291 158.757 46.2651 158.934C45.9104 159.102 45.6304 159.345 45.4251 159.662C45.2198 159.98 45.1171 160.358 45.1171 160.796C45.1171 161.44 45.3364 161.954 45.7751 162.336C46.2231 162.719 46.8251 162.91 47.5811 162.91C48.0851 162.91 48.5238 162.817 48.8971 162.63C49.2798 162.444 49.5738 162.187 49.7791 161.86C49.9938 161.534 50.1011 161.17 50.1011 160.768C50.1011 160.404 50.0031 160.064 49.8071 159.746C49.6111 159.429 49.3218 159.172 48.9391 158.976C48.5564 158.771 48.0804 158.668 47.5111 158.668Z" fill="black"/>
<path d="M91.0763 167.698V158.318L91.5243 158.794H88.7663V157.898H92.0843V167.698H91.0763ZM98.3329 167.782C97.5769 167.782 96.9049 167.586 96.3169 167.194C95.7289 166.793 95.2669 166.224 94.9309 165.486C94.5949 164.74 94.4269 163.844 94.4269 162.798C94.4269 161.753 94.5949 160.862 94.9309 160.124C95.2669 159.378 95.7289 158.808 96.3169 158.416C96.9049 158.015 97.5769 157.814 98.3329 157.814C99.0889 157.814 99.7609 158.015 100.349 158.416C100.937 158.808 101.399 159.378 101.735 160.124C102.08 160.862 102.253 161.753 102.253 162.798C102.253 163.844 102.08 164.74 101.735 165.486C101.399 166.224 100.937 166.793 100.349 167.194C99.7609 167.586 99.0889 167.782 98.3329 167.782ZM98.3329 166.858C98.9115 166.858 99.4155 166.704 99.8449 166.396C100.274 166.079 100.61 165.622 100.853 165.024C101.096 164.418 101.217 163.676 101.217 162.798C101.217 161.921 101.096 161.184 100.853 160.586C100.61 159.98 100.274 159.522 99.8449 159.214C99.4155 158.897 98.9115 158.738 98.3329 158.738C97.7729 158.738 97.2735 158.897 96.8349 159.214C96.3962 159.522 96.0555 159.98 95.8129 160.586C95.5702 161.184 95.4489 161.921 95.4489 162.798C95.4489 163.676 95.5702 164.418 95.8129 165.024C96.0555 165.622 96.3962 166.079 96.8349 166.396C97.2735 166.704 97.7729 166.858 98.3329 166.858Z" fill="black"/>
<path d="M141.031 167.698V158.318L141.479 158.794H138.721V157.898H142.039V167.698H141.031ZM146.09 167.698V158.318L146.538 158.794H143.78V157.898H147.098V167.698H146.09Z" fill="black"/>
<path d="M187.434 167.698V158.318L187.882 158.794H185.124V157.898H188.442V167.698H187.434ZM190.602 167.698V166.984L194.676 162.994C195.05 162.63 195.33 162.313 195.516 162.042C195.703 161.762 195.829 161.501 195.894 161.258C195.96 161.016 195.992 160.787 195.992 160.572C195.992 160.003 195.796 159.555 195.404 159.228C195.022 158.902 194.452 158.738 193.696 158.738C193.118 158.738 192.604 158.827 192.156 159.004C191.718 159.182 191.34 159.457 191.022 159.83L190.308 159.214C190.691 158.766 191.181 158.421 191.778 158.178C192.376 157.936 193.043 157.814 193.78 157.814C194.443 157.814 195.017 157.922 195.502 158.136C195.988 158.342 196.361 158.645 196.622 159.046C196.893 159.448 197.028 159.919 197.028 160.46C197.028 160.778 196.982 161.09 196.888 161.398C196.804 161.706 196.646 162.033 196.412 162.378C196.188 162.714 195.857 163.097 195.418 163.526L191.68 167.194L191.4 166.802H197.476V167.698H190.602Z" fill="black"/>
<path d="M235.311 167.698V158.318L235.759 158.794H233.001V157.898H236.319V167.698H235.311ZM241.587 167.782C240.878 167.782 240.206 167.67 239.571 167.446C238.946 167.213 238.442 166.905 238.059 166.522L238.549 165.724C238.867 166.051 239.291 166.322 239.823 166.536C240.365 166.751 240.953 166.858 241.587 166.858C242.399 166.858 243.02 166.681 243.449 166.326C243.888 165.972 244.107 165.496 244.107 164.898C244.107 164.301 243.893 163.825 243.463 163.47C243.043 163.116 242.376 162.938 241.461 162.938H240.761V162.196L243.785 158.402L243.925 158.794H238.465V157.898H244.765V158.612L241.741 162.406L241.251 162.084H241.629C242.805 162.084 243.683 162.346 244.261 162.868C244.849 163.391 245.143 164.063 245.143 164.884C245.143 165.435 245.013 165.93 244.751 166.368C244.49 166.807 244.093 167.152 243.561 167.404C243.039 167.656 242.381 167.782 241.587 167.782Z" fill="black"/>
<path d="M282.483 167.698V158.318L282.931 158.794H280.173V157.898H283.491V167.698H282.483ZM285.666 165.122V164.394L290.86 157.898H291.98L286.828 164.394L286.282 164.226H294.164V165.122H285.666ZM291.196 167.698V165.122L291.224 164.226V161.958H292.204V167.698H291.196Z" fill="#3F83F8"/>
<path d="M330.996 167.698V158.318L331.444 158.794H328.686V157.898H332.004V167.698H330.996ZM337.441 167.782C336.741 167.782 336.073 167.67 335.439 167.446C334.804 167.213 334.3 166.905 333.927 166.522L334.417 165.724C334.725 166.051 335.145 166.322 335.677 166.536C336.218 166.751 336.801 166.858 337.427 166.858C338.257 166.858 338.887 166.676 339.317 166.312C339.755 165.939 339.975 165.454 339.975 164.856C339.975 164.436 339.872 164.077 339.667 163.778C339.471 163.47 339.135 163.232 338.659 163.064C338.183 162.896 337.529 162.812 336.699 162.812H334.613L335.117 157.898H340.479V158.794H335.523L336.041 158.304L335.607 162.42L335.089 161.916H336.923C337.912 161.916 338.705 162.038 339.303 162.28C339.9 162.523 340.329 162.864 340.591 163.302C340.861 163.732 340.997 164.236 340.997 164.814C340.997 165.365 340.866 165.869 340.605 166.326C340.343 166.774 339.951 167.129 339.429 167.39C338.906 167.652 338.243 167.782 337.441 167.782Z" fill="#3F83F8"/>
<path d="M44.5222 141.141V140.427L48.5962 136.437C48.9695 136.073 49.2495 135.755 49.4362 135.485C49.6229 135.205 49.7489 134.943 49.8142 134.701C49.8795 134.458 49.9122 134.229 49.9122 134.015C49.9122 133.445 49.7162 132.997 49.3242 132.671C48.9415 132.344 48.3722 132.181 47.6162 132.181C47.0375 132.181 46.5242 132.269 46.0762 132.447C45.6375 132.624 45.2595 132.899 44.9422 133.273L44.2282 132.657C44.6109 132.209 45.1009 131.863 45.6982 131.621C46.2955 131.378 46.9629 131.257 47.7002 131.257C48.3629 131.257 48.9369 131.364 49.4222 131.579C49.9075 131.784 50.2809 132.087 50.5422 132.489C50.8129 132.89 50.9482 133.361 50.9482 133.903C50.9482 134.22 50.9015 134.533 50.8082 134.841C50.7242 135.149 50.5655 135.475 50.3322 135.821C50.1082 136.157 49.7769 136.539 49.3382 136.969L45.6002 140.637L45.3202 140.245H51.3962V141.141H44.5222Z" fill="black"/>
<path d="M95.5072 141.225C94.7978 141.225 94.1258 141.113 93.4912 140.889C92.8658 140.655 92.3618 140.347 91.9792 139.965L92.4692 139.167C92.7865 139.493 93.2112 139.764 93.7432 139.979C94.2845 140.193 94.8725 140.301 95.5072 140.301C96.3192 140.301 96.9398 140.123 97.3692 139.769C97.8078 139.414 98.0272 138.938 98.0272 138.341C98.0272 137.743 97.8125 137.267 97.3832 136.913C96.9632 136.558 96.2958 136.381 95.3812 136.381H94.6812V135.639L97.7052 131.845L97.8452 132.237H92.3852V131.341H98.6852V132.055L95.6612 135.849L95.1712 135.527H95.5492C96.7252 135.527 97.6025 135.788 98.1812 136.311C98.7692 136.833 99.0632 137.505 99.0632 138.327C99.0632 138.877 98.9325 139.372 98.6712 139.811C98.4098 140.249 98.0132 140.595 97.4812 140.847C96.9585 141.099 96.3005 141.225 95.5072 141.225Z" fill="black"/>
<path d="M139.586 138.565V137.837L144.78 131.341H145.9L140.748 137.837L140.202 137.669H148.084V138.565H139.586ZM145.116 141.141V138.565L145.144 137.669V135.401H146.124V141.141H145.116Z" fill="black"/>
<path d="M191.363 141.225C190.663 141.225 189.995 141.113 189.361 140.889C188.726 140.655 188.222 140.347 187.849 139.965L188.339 139.167C188.647 139.493 189.067 139.764 189.599 139.979C190.14 140.193 190.723 140.301 191.349 140.301C192.179 140.301 192.809 140.119 193.239 139.755C193.677 139.381 193.897 138.896 193.897 138.299C193.897 137.879 193.794 137.519 193.589 137.221C193.393 136.913 193.057 136.675 192.581 136.507C192.105 136.339 191.451 136.255 190.621 136.255H188.535L189.039 131.341H194.401V132.237H189.445L189.963 131.747L189.529 135.863L189.011 135.359H190.845C191.834 135.359 192.627 135.48 193.225 135.723C193.822 135.965 194.251 136.306 194.513 136.745C194.783 137.174 194.919 137.678 194.919 138.257C194.919 138.807 194.788 139.311 194.527 139.769C194.265 140.217 193.873 140.571 193.351 140.833C192.828 141.094 192.165 141.225 191.363 141.225Z" fill="black"/>
<path d="M239.835 141.225C238.967 141.225 238.235 141.033 237.637 140.651C237.04 140.259 236.587 139.699 236.279 138.971C235.971 138.233 235.817 137.351 235.817 136.325C235.817 135.214 236.004 134.285 236.377 133.539C236.76 132.783 237.287 132.213 237.959 131.831C238.631 131.448 239.411 131.257 240.297 131.257C240.736 131.257 241.156 131.299 241.557 131.383C241.959 131.467 242.313 131.602 242.621 131.789L242.215 132.601C241.963 132.433 241.674 132.316 241.347 132.251C241.021 132.176 240.675 132.139 240.311 132.139C239.257 132.139 238.412 132.475 237.777 133.147C237.152 133.819 236.839 134.822 236.839 136.157C236.839 136.362 236.849 136.619 236.867 136.927C236.895 137.225 236.951 137.524 237.035 137.823L236.685 137.557C236.788 137.071 236.989 136.661 237.287 136.325C237.586 135.979 237.959 135.718 238.407 135.541C238.855 135.363 239.345 135.275 239.877 135.275C240.531 135.275 241.105 135.396 241.599 135.639C242.094 135.881 242.481 136.222 242.761 136.661C243.041 137.099 243.181 137.617 243.181 138.215C243.181 138.821 243.037 139.353 242.747 139.811C242.458 140.259 242.057 140.609 241.543 140.861C241.039 141.103 240.47 141.225 239.835 141.225ZM239.793 140.371C240.26 140.371 240.671 140.287 241.025 140.119C241.389 139.941 241.674 139.694 241.879 139.377C242.085 139.05 242.187 138.672 242.187 138.243C242.187 137.599 241.963 137.085 241.515 136.703C241.077 136.32 240.479 136.129 239.723 136.129C239.219 136.129 238.781 136.222 238.407 136.409C238.034 136.595 237.74 136.852 237.525 137.179C237.311 137.496 237.203 137.86 237.203 138.271C237.203 138.625 237.301 138.966 237.497 139.293C237.693 139.61 237.983 139.871 238.365 140.077C238.757 140.273 239.233 140.371 239.793 140.371Z" fill="black"/>
<path d="M285.533 141.141L289.761 131.789L290.069 132.237H284.007L284.525 131.747V134.071H283.531V131.341H290.727V132.055L286.625 141.141H285.533Z" fill="#3F83F8"/>
<path d="M335.042 141.225C334.258 141.225 333.582 141.113 333.012 140.889C332.452 140.665 332.018 140.343 331.71 139.923C331.412 139.493 331.262 138.989 331.262 138.411C331.262 137.851 331.407 137.375 331.696 136.983C331.995 136.581 332.424 136.273 332.984 136.059C333.554 135.844 334.24 135.737 335.042 135.737C335.836 135.737 336.517 135.844 337.086 136.059C337.656 136.273 338.09 136.581 338.388 136.983C338.696 137.375 338.85 137.851 338.85 138.411C338.85 138.989 338.696 139.493 338.388 139.923C338.08 140.343 337.642 140.665 337.072 140.889C336.503 141.113 335.826 141.225 335.042 141.225ZM335.042 140.371C335.91 140.371 336.587 140.193 337.072 139.839C337.567 139.484 337.814 139.003 337.814 138.397C337.814 137.79 337.567 137.314 337.072 136.969C336.587 136.614 335.91 136.437 335.042 136.437C334.174 136.437 333.498 136.614 333.012 136.969C332.527 137.314 332.284 137.79 332.284 138.397C332.284 139.003 332.527 139.484 333.012 139.839C333.498 140.193 334.174 140.371 335.042 140.371ZM335.042 136.311C334.314 136.311 333.694 136.213 333.18 136.017C332.676 135.821 332.289 135.541 332.018 135.177C331.748 134.803 331.612 134.36 331.612 133.847C331.612 133.305 331.752 132.843 332.032 132.461C332.322 132.069 332.723 131.77 333.236 131.565C333.75 131.359 334.352 131.257 335.042 131.257C335.733 131.257 336.335 131.359 336.848 131.565C337.371 131.77 337.777 132.069 338.066 132.461C338.356 132.843 338.5 133.305 338.5 133.847C338.5 134.36 338.365 134.803 338.094 135.177C337.824 135.541 337.427 135.821 336.904 136.017C336.391 136.213 335.77 136.311 335.042 136.311ZM335.042 135.639C335.808 135.639 336.405 135.48 336.834 135.163C337.264 134.845 337.478 134.421 337.478 133.889C337.478 133.329 337.254 132.895 336.806 132.587C336.368 132.269 335.78 132.111 335.042 132.111C334.305 132.111 333.717 132.269 333.278 132.587C332.84 132.895 332.62 133.324 332.62 133.875C332.62 134.416 332.83 134.845 333.25 135.163C333.68 135.48 334.277 135.639 335.042 135.639Z" fill="#3F83F8"/>
<path d="M40.1511 114.584V113.87L44.2251 109.88C44.5984 109.516 44.8784 109.199 45.0651 108.928C45.2518 108.648 45.3778 108.387 45.4431 108.144C45.5084 107.901 45.5411 107.673 45.5411 107.458C45.5411 106.889 45.3451 106.441 44.9531 106.114C44.5704 105.787 44.0011 105.624 43.2451 105.624C42.6664 105.624 42.1531 105.713 41.7051 105.89C41.2664 106.067 40.8884 106.343 40.5711 106.716L39.8571 106.1C40.2398 105.652 40.7298 105.307 41.3271 105.064C41.9244 104.821 42.5918 104.7 43.3291 104.7C43.9918 104.7 44.5658 104.807 45.0511 105.022C45.5364 105.227 45.9098 105.531 46.1711 105.932C46.4418 106.333 46.5771 106.805 46.5771 107.346C46.5771 107.663 46.5304 107.976 46.4371 108.284C46.3531 108.592 46.1944 108.919 45.9611 109.264C45.7371 109.6 45.4058 109.983 44.9671 110.412L41.2291 114.08L40.9491 113.688H47.0251V114.584H40.1511ZM52.2808 114.668C51.4128 114.668 50.6801 114.477 50.0828 114.094C49.4855 113.702 49.0328 113.142 48.7248 112.414C48.4168 111.677 48.2628 110.795 48.2628 109.768C48.2628 108.657 48.4495 107.729 48.8228 106.982C49.2055 106.226 49.7328 105.657 50.4048 105.274C51.0768 104.891 51.8561 104.7 52.7428 104.7C53.1815 104.7 53.6015 104.742 54.0028 104.826C54.4041 104.91 54.7588 105.045 55.0668 105.232L54.6608 106.044C54.4088 105.876 54.1195 105.759 53.7928 105.694C53.4661 105.619 53.1208 105.582 52.7568 105.582C51.7021 105.582 50.8575 105.918 50.2228 106.59C49.5975 107.262 49.2848 108.265 49.2848 109.6C49.2848 109.805 49.2941 110.062 49.3128 110.37C49.3408 110.669 49.3968 110.967 49.4808 111.266L49.1308 111C49.2335 110.515 49.4341 110.104 49.7328 109.768C50.0315 109.423 50.4048 109.161 50.8528 108.984C51.3008 108.807 51.7908 108.718 52.3228 108.718C52.9761 108.718 53.5501 108.839 54.0448 109.082C54.5395 109.325 54.9268 109.665 55.2068 110.104C55.4868 110.543 55.6268 111.061 55.6268 111.658C55.6268 112.265 55.4821 112.797 55.1928 113.254C54.9035 113.702 54.5021 114.052 53.9888 114.304C53.4848 114.547 52.9155 114.668 52.2808 114.668ZM52.2388 113.814C52.7055 113.814 53.1161 113.73 53.4708 113.562C53.8348 113.385 54.1195 113.137 54.3248 112.82C54.5301 112.493 54.6328 112.115 54.6328 111.686C54.6328 111.042 54.4088 110.529 53.9608 110.146C53.5221 109.763 52.9248 109.572 52.1688 109.572C51.6648 109.572 51.2261 109.665 50.8528 109.852C50.4795 110.039 50.1855 110.295 49.9708 110.622C49.7561 110.939 49.6488 111.303 49.6488 111.714C49.6488 112.069 49.7468 112.409 49.9428 112.736C50.1388 113.053 50.4281 113.315 50.8108 113.52C51.2028 113.716 51.6788 113.814 52.2388 113.814Z" fill="black" fill-opacity="0.5"/>
<path d="M88.1443 114.584V113.87L92.2183 109.88C92.5916 109.516 92.8716 109.199 93.0583 108.928C93.2449 108.648 93.3709 108.387 93.4363 108.144C93.5016 107.901 93.5343 107.673 93.5343 107.458C93.5343 106.889 93.3383 106.441 92.9463 106.114C92.5636 105.787 91.9943 105.624 91.2383 105.624C90.6596 105.624 90.1463 105.713 89.6983 105.89C89.2596 106.067 88.8816 106.343 88.5643 106.716L87.8503 106.1C88.2329 105.652 88.7229 105.307 89.3203 105.064C89.9176 104.821 90.5849 104.7 91.3223 104.7C91.9849 104.7 92.5589 104.807 93.0443 105.022C93.5296 105.227 93.9029 105.531 94.1643 105.932C94.4349 106.333 94.5703 106.805 94.5703 107.346C94.5703 107.663 94.5236 107.976 94.4303 108.284C94.3463 108.592 94.1876 108.919 93.9543 109.264C93.7303 109.6 93.3989 109.983 92.9603 110.412L89.2223 114.08L88.9423 113.688H95.0183V114.584H88.1443ZM97.978 114.584L102.206 105.232L102.514 105.68H96.452L96.97 105.19V107.514H95.976V104.784H103.172V105.498L99.07 114.584H97.978Z" fill="black" fill-opacity="0.5"/>
<path d="M135.638 114.584V113.87L139.712 109.88C140.086 109.516 140.366 109.199 140.552 108.928C140.739 108.648 140.865 108.387 140.93 108.144C140.996 107.901 141.028 107.673 141.028 107.458C141.028 106.889 140.832 106.441 140.44 106.114C140.058 105.787 139.488 105.624 138.732 105.624C138.154 105.624 137.64 105.713 137.192 105.89C136.754 106.067 136.376 106.343 136.058 106.716L135.344 106.1C135.727 105.652 136.217 105.307 136.814 105.064C137.412 104.821 138.079 104.7 138.816 104.7C139.479 104.7 140.053 104.807 140.538 105.022C141.024 105.227 141.397 105.531 141.658 105.932C141.929 106.333 142.064 106.805 142.064 107.346C142.064 107.663 142.018 107.976 141.924 108.284C141.84 108.592 141.682 108.919 141.448 109.264C141.224 109.6 140.893 109.983 140.454 110.412L136.716 114.08L136.436 113.688H142.512V114.584H135.638ZM147.501 114.668C146.717 114.668 146.041 114.556 145.471 114.332C144.911 114.108 144.477 113.786 144.169 113.366C143.871 112.937 143.721 112.433 143.721 111.854C143.721 111.294 143.866 110.818 144.155 110.426C144.454 110.025 144.883 109.717 145.443 109.502C146.013 109.287 146.699 109.18 147.501 109.18C148.295 109.18 148.976 109.287 149.545 109.502C150.115 109.717 150.549 110.025 150.847 110.426C151.155 110.818 151.309 111.294 151.309 111.854C151.309 112.433 151.155 112.937 150.847 113.366C150.539 113.786 150.101 114.108 149.531 114.332C148.962 114.556 148.285 114.668 147.501 114.668ZM147.501 113.814C148.369 113.814 149.046 113.637 149.531 113.282C150.026 112.927 150.273 112.447 150.273 111.84C150.273 111.233 150.026 110.757 149.531 110.412C149.046 110.057 148.369 109.88 147.501 109.88C146.633 109.88 145.957 110.057 145.471 110.412C144.986 110.757 144.743 111.233 144.743 111.84C144.743 112.447 144.986 112.927 145.471 113.282C145.957 113.637 146.633 113.814 147.501 113.814ZM147.501 109.754C146.773 109.754 146.153 109.656 145.639 109.46C145.135 109.264 144.748 108.984 144.477 108.62C144.207 108.247 144.071 107.803 144.071 107.29C144.071 106.749 144.211 106.287 144.491 105.904C144.781 105.512 145.182 105.213 145.695 105.008C146.209 104.803 146.811 104.7 147.501 104.7C148.192 104.7 148.794 104.803 149.307 105.008C149.83 105.213 150.236 105.512 150.525 105.904C150.815 106.287 150.959 106.749 150.959 107.29C150.959 107.803 150.824 108.247 150.553 108.62C150.283 108.984 149.886 109.264 149.363 109.46C148.85 109.656 148.229 109.754 147.501 109.754ZM147.501 109.082C148.267 109.082 148.864 108.923 149.293 108.606C149.723 108.289 149.937 107.864 149.937 107.332C149.937 106.772 149.713 106.338 149.265 106.03C148.827 105.713 148.239 105.554 147.501 105.554C146.764 105.554 146.176 105.713 145.737 106.03C145.299 106.338 145.079 106.767 145.079 107.318C145.079 107.859 145.289 108.289 145.709 108.606C146.139 108.923 146.736 109.082 147.501 109.082Z" fill="black" fill-opacity="0.5"/>
<path d="M183.688 114.584V113.87L187.762 109.88C188.136 109.516 188.416 109.199 188.602 108.928C188.789 108.648 188.915 108.387 188.98 108.144C189.046 107.901 189.078 107.673 189.078 107.458C189.078 106.889 188.882 106.441 188.49 106.114C188.108 105.787 187.538 105.624 186.782 105.624C186.204 105.624 185.69 105.713 185.242 105.89C184.804 106.067 184.426 106.343 184.108 106.716L183.394 106.1C183.777 105.652 184.267 105.307 184.864 105.064C185.462 104.821 186.129 104.7 186.866 104.7C187.529 104.7 188.103 104.807 188.588 105.022C189.074 105.227 189.447 105.531 189.708 105.932C189.979 106.333 190.114 106.805 190.114 107.346C190.114 107.663 190.068 107.976 189.974 108.284C189.89 108.592 189.732 108.919 189.498 109.264C189.274 109.6 188.943 109.983 188.504 110.412L184.766 114.08L184.486 113.688H190.562V114.584H183.688ZM194.879 104.7C195.747 104.7 196.48 104.896 197.077 105.288C197.675 105.671 198.127 106.226 198.435 106.954C198.743 107.682 198.897 108.564 198.897 109.6C198.897 110.701 198.706 111.63 198.323 112.386C197.95 113.142 197.427 113.711 196.755 114.094C196.083 114.477 195.304 114.668 194.417 114.668C193.979 114.668 193.559 114.626 193.157 114.542C192.765 114.458 192.411 114.323 192.093 114.136L192.499 113.324C192.751 113.492 193.041 113.613 193.367 113.688C193.703 113.753 194.049 113.786 194.403 113.786C195.458 113.786 196.298 113.45 196.923 112.778C197.558 112.106 197.875 111.103 197.875 109.768C197.875 109.553 197.861 109.297 197.833 108.998C197.815 108.699 197.763 108.401 197.679 108.102L198.029 108.368C197.936 108.853 197.735 109.269 197.427 109.614C197.129 109.95 196.755 110.207 196.307 110.384C195.869 110.561 195.379 110.65 194.837 110.65C194.193 110.65 193.619 110.529 193.115 110.286C192.621 110.043 192.233 109.703 191.953 109.264C191.673 108.825 191.533 108.307 191.533 107.71C191.533 107.094 191.678 106.562 191.967 106.114C192.257 105.666 192.653 105.321 193.157 105.078C193.671 104.826 194.245 104.7 194.879 104.7ZM194.921 105.554C194.455 105.554 194.039 105.643 193.675 105.82C193.321 105.988 193.041 106.231 192.835 106.548C192.63 106.865 192.527 107.243 192.527 107.682C192.527 108.326 192.747 108.839 193.185 109.222C193.633 109.605 194.235 109.796 194.991 109.796C195.495 109.796 195.934 109.703 196.307 109.516C196.69 109.329 196.984 109.073 197.189 108.746C197.404 108.419 197.511 108.055 197.511 107.654C197.511 107.29 197.413 106.949 197.217 106.632C197.021 106.315 196.732 106.058 196.349 105.862C195.967 105.657 195.491 105.554 194.921 105.554Z" fill="black" fill-opacity="0.5"/>
<path d="M234.304 114.668C233.595 114.668 232.923 114.556 232.288 114.332C231.663 114.099 231.159 113.791 230.776 113.408L231.266 112.61C231.583 112.937 232.008 113.207 232.54 113.422C233.081 113.637 233.669 113.744 234.304 113.744C235.116 113.744 235.737 113.567 236.166 113.212C236.605 112.857 236.824 112.381 236.824 111.784C236.824 111.187 236.609 110.711 236.18 110.356C235.76 110.001 235.093 109.824 234.178 109.824H233.478V109.082L236.502 105.288L236.642 105.68H231.182V104.784H237.482V105.498L234.458 109.292L233.968 108.97H234.346C235.522 108.97 236.399 109.231 236.978 109.754C237.566 110.277 237.86 110.949 237.86 111.77C237.86 112.321 237.729 112.815 237.468 113.254C237.207 113.693 236.81 114.038 236.278 114.29C235.755 114.542 235.097 114.668 234.304 114.668ZM243.186 114.668C242.43 114.668 241.758 114.472 241.17 114.08C240.582 113.679 240.12 113.109 239.784 112.372C239.448 111.625 239.28 110.729 239.28 109.684C239.28 108.639 239.448 107.747 239.784 107.01C240.12 106.263 240.582 105.694 241.17 105.302C241.758 104.901 242.43 104.7 243.186 104.7C243.942 104.7 244.614 104.901 245.202 105.302C245.79 105.694 246.252 106.263 246.588 107.01C246.934 107.747 247.106 108.639 247.106 109.684C247.106 110.729 246.934 111.625 246.588 112.372C246.252 113.109 245.79 113.679 245.202 114.08C244.614 114.472 243.942 114.668 243.186 114.668ZM243.186 113.744C243.765 113.744 244.269 113.59 244.698 113.282C245.128 112.965 245.464 112.507 245.706 111.91C245.949 111.303 246.07 110.561 246.07 109.684C246.07 108.807 245.949 108.069 245.706 107.472C245.464 106.865 245.128 106.408 244.698 106.1C244.269 105.783 243.765 105.624 243.186 105.624C242.626 105.624 242.127 105.783 241.688 106.1C241.25 106.408 240.909 106.865 240.666 107.472C240.424 108.069 240.302 108.807 240.302 109.684C240.302 110.561 240.424 111.303 240.666 111.91C240.909 112.507 241.25 112.965 241.688 113.282C242.127 113.59 242.626 113.744 243.186 113.744Z" fill="black" fill-opacity="0.5"/>
<path d="M284.259 114.668C283.55 114.668 282.878 114.556 282.243 114.332C281.618 114.099 281.114 113.791 280.731 113.408L281.221 112.61C281.538 112.937 281.963 113.207 282.495 113.422C283.036 113.637 283.624 113.744 284.259 113.744C285.071 113.744 285.692 113.567 286.121 113.212C286.56 112.857 286.779 112.381 286.779 111.784C286.779 111.187 286.564 110.711 286.135 110.356C285.715 110.001 285.048 109.824 284.133 109.824H283.433V109.082L286.457 105.288L286.597 105.68H281.137V104.784H287.437V105.498L284.413 109.292L283.923 108.97H284.301C285.477 108.97 286.354 109.231 286.933 109.754C287.521 110.277 287.815 110.949 287.815 111.77C287.815 112.321 287.684 112.815 287.423 113.254C287.162 113.693 286.765 114.038 286.233 114.29C285.71 114.542 285.052 114.668 284.259 114.668ZM290.943 114.584V105.204L291.391 105.68H288.633V104.784H291.951V114.584H290.943Z" fill="#3F83F8"/>
<path d="M334.842 114.584V105.204L335.29 105.68H332.532V104.784H335.85V114.584H334.842Z" fill="#3F83F8"/>
<path d="M30.046 86.0273V77.6273H31.33L35.002 83.7593H34.33L37.942 77.6273H39.226L39.238 86.0273H37.762L37.75 79.9433H38.062L34.99 85.0673H34.294L31.174 79.9433H31.534V86.0273H30.046ZM45.4429 86.1473C44.7869 86.1473 44.1829 86.0393 43.6309 85.8233C43.0789 85.6073 42.5989 85.3073 42.1909 84.9233C41.7829 84.5313 41.4669 84.0753 41.2429 83.5553C41.0189 83.0273 40.9069 82.4513 40.9069 81.8273C40.9069 81.2033 41.0189 80.6313 41.2429 80.1113C41.4669 79.5833 41.7829 79.1273 42.1909 78.7433C42.5989 78.3513 43.0789 78.0473 43.6309 77.8313C44.1829 77.6153 44.7829 77.5073 45.4309 77.5073C46.0869 77.5073 46.6869 77.6153 47.2309 77.8313C47.7829 78.0473 48.2629 78.3513 48.6709 78.7433C49.0789 79.1273 49.3949 79.5833 49.6189 80.1113C49.8429 80.6313 49.9549 81.2033 49.9549 81.8273C49.9549 82.4513 49.8429 83.0273 49.6189 83.5553C49.3949 84.0833 49.0789 84.5393 48.6709 84.9233C48.2629 85.3073 47.7829 85.6073 47.2309 85.8233C46.6869 86.0393 46.0909 86.1473 45.4429 86.1473ZM45.4309 84.7793C45.8549 84.7793 46.2469 84.7073 46.6069 84.5633C46.9669 84.4193 47.2789 84.2153 47.5429 83.9513C47.8069 83.6793 48.0109 83.3673 48.1549 83.0153C48.3069 82.6553 48.3829 82.2593 48.3829 81.8273C48.3829 81.3953 48.3069 81.0033 48.1549 80.6513C48.0109 80.2913 47.8069 79.9793 47.5429 79.7153C47.2789 79.4433 46.9669 79.2353 46.6069 79.0913C46.2469 78.9473 45.8549 78.8753 45.4309 78.8753C45.0069 78.8753 44.6149 78.9473 44.2549 79.0913C43.9029 79.2353 43.5909 79.4433 43.3189 79.7153C43.0549 79.9793 42.8469 80.2913 42.6949 80.6513C42.5509 81.0033 42.4789 81.3953 42.4789 81.8273C42.4789 82.2513 42.5509 82.6433 42.6949 83.0033C42.8469 83.3633 43.0549 83.6793 43.3189 83.9513C43.5829 84.2153 43.8949 84.4193 44.2549 84.5633C44.6149 84.7073 45.0069 84.7793 45.4309 84.7793ZM51.6085 86.0273V77.6273H52.8925L58.1605 84.0953H57.5245V77.6273H59.0725V86.0273H57.7885L52.5205 79.5593H53.1565V86.0273H51.6085Z" fill="black"/>
<path d="M84.4121 86.0273V78.9473H81.6281V77.6273H88.7561V78.9473H85.9721V86.0273H84.4121ZM93.3865 86.1473C92.2345 86.1473 91.3305 85.8233 90.6745 85.1753C90.0265 84.5273 89.7025 83.5913 89.7025 82.3673V77.6273H91.2625V82.3073C91.2625 83.1713 91.4465 83.7993 91.8145 84.1913C92.1905 84.5833 92.7185 84.7793 93.3985 84.7793C94.0785 84.7793 94.6025 84.5833 94.9705 84.1913C95.3385 83.7993 95.5225 83.1713 95.5225 82.3073V77.6273H97.0585V82.3673C97.0585 83.5913 96.7305 84.5273 96.0745 85.1753C95.4265 85.8233 94.5305 86.1473 93.3865 86.1473ZM100.683 81.1193H104.859V82.4033H100.683V81.1193ZM100.803 84.7193H105.543V86.0273H99.2432V77.6273H105.375V78.9353H100.803V84.7193Z" fill="black"/>
<path d="M130.1 86.0273L127.316 77.6273H128.936L131.42 85.2233H130.616L133.196 77.6273H134.636L137.144 85.2233H136.364L138.908 77.6273H140.396L137.612 86.0273H135.956L133.664 79.1753H134.096L131.768 86.0273H130.1ZM143.107 81.1193H147.283V82.4033H143.107V81.1193ZM143.227 84.7193H147.967V86.0273H141.667V77.6273H147.799V78.9353H143.227V84.7193ZM149.706 86.0273V77.6273H153.378C154.29 77.6273 155.09 77.8033 155.778 78.1553C156.466 78.5073 157.002 78.9953 157.386 79.6193C157.77 80.2433 157.962 80.9793 157.962 81.8273C157.962 82.6673 157.77 83.4033 157.386 84.0353C157.002 84.6593 156.466 85.1473 155.778 85.4993C155.09 85.8513 154.29 86.0273 153.378 86.0273H149.706ZM151.266 84.7073H153.306C153.938 84.7073 154.482 84.5873 154.938 84.3473C155.402 84.1073 155.758 83.7713 156.006 83.3393C156.262 82.9073 156.39 82.4033 156.39 81.8273C156.39 81.2433 156.262 80.7393 156.006 80.3153C155.758 79.8833 155.402 79.5473 154.938 79.3073C154.482 79.0673 153.938 78.9473 153.306 78.9473H151.266V84.7073Z" fill="black"/>
<path d="M181.426 86.0273V78.9473H178.642V77.6273H185.77V78.9473H182.986V86.0273H181.426ZM192.845 77.6273H194.405V86.0273H192.845V77.6273ZM188.5 86.0273H186.94V77.6273H188.5V86.0273ZM192.965 82.4273H188.368V81.0953H192.965V82.4273ZM200.267 86.1473C199.115 86.1473 198.211 85.8233 197.555 85.1753C196.907 84.5273 196.583 83.5913 196.583 82.3673V77.6273H198.143V82.3073C198.143 83.1713 198.327 83.7993 198.695 84.1913C199.071 84.5833 199.599 84.7793 200.279 84.7793C200.959 84.7793 201.483 84.5833 201.851 84.1913C202.219 83.7993 202.403 83.1713 202.403 82.3073V77.6273H203.939V82.3673C203.939 83.5913 203.611 84.5273 202.955 85.1753C202.307 85.8233 201.411 86.1473 200.267 86.1473Z" fill="black"/>
<path d="M233.027 81.4913H237.215V82.8113H233.027V81.4913ZM233.159 86.0273H231.599V77.6273H237.731V78.9353H233.159V86.0273ZM239.239 86.0273V77.6273H242.695C243.439 77.6273 244.075 77.7473 244.603 77.9873C245.139 78.2273 245.551 78.5713 245.839 79.0193C246.127 79.4673 246.271 79.9993 246.271 80.6153C246.271 81.2313 246.127 81.7633 245.839 82.2113C245.551 82.6513 245.139 82.9913 244.603 83.2313C244.075 83.4633 243.439 83.5793 242.695 83.5793H240.103L240.799 82.8713V86.0273H239.239ZM244.735 86.0273L242.611 82.9793H244.279L246.415 86.0273H244.735ZM240.799 83.0393L240.103 82.2953H242.623C243.311 82.2953 243.827 82.1473 244.171 81.8513C244.523 81.5553 244.699 81.1433 244.699 80.6153C244.699 80.0793 244.523 79.6673 244.171 79.3793C243.827 79.0913 243.311 78.9473 242.623 78.9473H240.103L240.799 78.1793V83.0393ZM248.017 86.0273V77.6273H249.577V86.0273H248.017Z" fill="black"/>
<path d="M280.732 86.1473C280.076 86.1473 279.448 86.0553 278.848 85.8713C278.248 85.6793 277.772 85.4353 277.42 85.1393L277.96 83.9273C278.296 84.1913 278.712 84.4113 279.208 84.5873C279.704 84.7633 280.212 84.8513 280.732 84.8513C281.172 84.8513 281.528 84.8033 281.8 84.7073C282.072 84.6113 282.272 84.4833 282.4 84.3233C282.528 84.1553 282.592 83.9673 282.592 83.7593C282.592 83.5033 282.5 83.2993 282.316 83.1473C282.132 82.9873 281.892 82.8633 281.596 82.7753C281.308 82.6793 280.984 82.5913 280.624 82.5113C280.272 82.4313 279.916 82.3393 279.556 82.2353C279.204 82.1233 278.88 81.9833 278.584 81.8153C278.296 81.6393 278.06 81.4073 277.876 81.1193C277.692 80.8313 277.6 80.4633 277.6 80.0153C277.6 79.5593 277.72 79.1433 277.96 78.7673C278.208 78.3833 278.58 78.0793 279.076 77.8553C279.58 77.6233 280.216 77.5073 280.984 77.5073C281.488 77.5073 281.988 77.5713 282.484 77.6993C282.98 77.8273 283.412 78.0113 283.78 78.2513L283.288 79.4633C282.912 79.2393 282.524 79.0753 282.124 78.9713C281.724 78.8593 281.34 78.8033 280.972 78.8033C280.54 78.8033 280.188 78.8553 279.916 78.9593C279.652 79.0633 279.456 79.1993 279.328 79.3673C279.208 79.5353 279.148 79.7273 279.148 79.9433C279.148 80.1993 279.236 80.4073 279.412 80.5673C279.596 80.7193 279.832 80.8393 280.12 80.9273C280.416 81.0153 280.744 81.1033 281.104 81.1913C281.464 81.2713 281.82 81.3633 282.172 81.4673C282.532 81.5713 282.856 81.7073 283.144 81.8753C283.44 82.0433 283.676 82.2713 283.852 82.5593C284.036 82.8473 284.128 83.2113 284.128 83.6513C284.128 84.0993 284.004 84.5153 283.756 84.8993C283.516 85.2753 283.144 85.5793 282.64 85.8113C282.136 86.0353 281.5 86.1473 280.732 86.1473ZM284.487 86.0273L288.267 77.6273H289.803L293.595 86.0273H291.963L288.711 78.4553H289.335L286.095 86.0273H284.487ZM286.227 84.0833L286.647 82.8593H291.183L291.603 84.0833H286.227ZM295.945 86.0273V78.9473H293.161V77.6273H300.289V78.9473H297.505V86.0273H295.945Z" fill="#3F83F8"/>
<path d="M327.982 86.1473C327.326 86.1473 326.698 86.0553 326.098 85.8713C325.498 85.6793 325.022 85.4353 324.67 85.1393L325.21 83.9273C325.546 84.1913 325.962 84.4113 326.458 84.5873C326.954 84.7633 327.462 84.8513 327.982 84.8513C328.422 84.8513 328.778 84.8033 329.05 84.7073C329.322 84.6113 329.522 84.4833 329.65 84.3233C329.778 84.1553 329.842 83.9673 329.842 83.7593C329.842 83.5033 329.75 83.2993 329.566 83.1473C329.382 82.9873 329.142 82.8633 328.846 82.7753C328.558 82.6793 328.234 82.5913 327.874 82.5113C327.522 82.4313 327.166 82.3393 326.806 82.2353C326.454 82.1233 326.13 81.9833 325.834 81.8153C325.546 81.6393 325.31 81.4073 325.126 81.1193C324.942 80.8313 324.85 80.4633 324.85 80.0153C324.85 79.5593 324.97 79.1433 325.21 78.7673C325.458 78.3833 325.83 78.0793 326.326 77.8553C326.83 77.6233 327.466 77.5073 328.234 77.5073C328.738 77.5073 329.238 77.5713 329.734 77.6993C330.23 77.8273 330.662 78.0113 331.03 78.2513L330.538 79.4633C330.162 79.2393 329.774 79.0753 329.374 78.9713C328.974 78.8593 328.59 78.8033 328.222 78.8033C327.79 78.8033 327.438 78.8553 327.166 78.9593C326.902 79.0633 326.706 79.1993 326.578 79.3673C326.458 79.5353 326.398 79.7273 326.398 79.9433C326.398 80.1993 326.486 80.4073 326.662 80.5673C326.846 80.7193 327.082 80.8393 327.37 80.9273C327.666 81.0153 327.994 81.1033 328.354 81.1913C328.714 81.2713 329.07 81.3633 329.422 81.4673C329.782 81.5713 330.106 81.7073 330.394 81.8753C330.69 82.0433 330.926 82.2713 331.102 82.5593C331.286 82.8473 331.378 83.2113 331.378 83.6513C331.378 84.0993 331.254 84.5153 331.006 84.8993C330.766 85.2753 330.394 85.5793 329.89 85.8113C329.386 86.0353 328.75 86.1473 327.982 86.1473ZM336.537 86.1473C335.385 86.1473 334.481 85.8233 333.825 85.1753C333.177 84.5273 332.853 83.5913 332.853 82.3673V77.6273H334.413V82.3073C334.413 83.1713 334.597 83.7993 334.965 84.1913C335.341 84.5833 335.869 84.7793 336.549 84.7793C337.229 84.7793 337.753 84.5833 338.121 84.1913C338.489 83.7993 338.673 83.1713 338.673 82.3073V77.6273H340.209V82.3673C340.209 83.5913 339.881 84.5273 339.225 85.1753C338.577 85.8233 337.681 86.1473 336.537 86.1473ZM342.394 86.0273V77.6273H343.678L348.946 84.0953H348.31V77.6273H349.858V86.0273H348.574L343.306 79.5593H343.942V86.0273H342.394Z" fill="#3F83F8"/>
<path d="M41.333 47.2914C40.1757 47.2914 39.093 47.0487 38.085 46.5634C37.077 46.078 36.2557 45.378 35.621 44.4634L37.245 42.5594C37.7864 43.306 38.393 43.8847 39.065 44.2954C39.7557 44.6874 40.5117 44.8834 41.333 44.8834C43.573 44.8834 44.693 43.558 44.693 40.9074V29.9034H37.609V27.4674H47.465V40.7674C47.465 42.9514 46.9424 44.5847 45.897 45.6674C44.8704 46.75 43.349 47.2914 41.333 47.2914ZM49.7904 47.0674L58.6664 27.4674H61.4384L70.3424 47.0674H67.4024L59.4784 29.0354H60.5984L52.6744 47.0674H49.7904ZM53.5704 42.1674L54.3264 39.9274H65.3584L66.1704 42.1674H53.5704ZM73.2662 47.0674V27.4674H75.5622L88.5262 43.5674H87.3222V27.4674H90.1222V47.0674H87.8262L74.8622 30.9674H76.0662V47.0674H73.2662ZM104.109 47.2914C101.533 47.2914 99.5075 46.554 98.0328 45.0794C96.5582 43.6047 95.8208 41.4487 95.8208 38.6114V27.4674H98.6208V38.4994C98.6208 40.6834 99.0968 42.2794 100.049 43.2874C101.019 44.2954 102.382 44.7994 104.137 44.7994C105.91 44.7994 107.273 44.2954 108.225 43.2874C109.195 42.2794 109.681 40.6834 109.681 38.4994V27.4674H112.397V38.6114C112.397 41.4487 111.659 43.6047 110.185 45.0794C108.729 46.554 106.703 47.2914 104.109 47.2914ZM114.759 47.0674L123.635 27.4674H126.407L135.311 47.0674H132.371L124.447 29.0354H125.567L117.643 47.0674H114.759ZM118.539 42.1674L119.295 39.9274H130.327L131.139 42.1674H118.539ZM138.235 47.0674V27.4674H145.879C147.596 27.4674 149.062 27.738 150.275 28.2794C151.488 28.8207 152.422 29.6047 153.075 30.6314C153.728 31.658 154.055 32.8807 154.055 34.2994C154.055 35.718 153.728 36.9407 153.075 37.9674C152.422 38.9754 151.488 39.75 150.275 40.2914C149.062 40.8327 147.596 41.1034 145.879 41.1034H139.775L141.035 39.8154V47.0674H138.235ZM151.339 47.0674L146.355 39.9554H149.351L154.391 47.0674H151.339ZM141.035 40.0954L139.775 38.7234H145.795C147.587 38.7234 148.94 38.3407 149.855 37.5754C150.788 36.7914 151.255 35.6994 151.255 34.2994C151.255 32.8994 150.788 31.8167 149.855 31.0514C148.94 30.286 147.587 29.9034 145.795 29.9034H139.775L141.035 28.5034V40.0954ZM158.579 47.0674V27.4674H161.379V47.0674H158.579Z" fill="#3F83F8"/>
<path d="M171.51 47.0674V46.4914L176.246 41.7874C176.694 41.3394 177.03 40.95 177.254 40.6194C177.478 40.278 177.627 39.9634 177.702 39.6754C177.787 39.3874 177.83 39.1047 177.83 38.8274C177.83 38.1234 177.59 37.5687 177.11 37.1634C176.63 36.7474 175.926 36.5394 174.998 36.5394C174.294 36.5394 173.675 36.646 173.142 36.8594C172.619 37.0727 172.166 37.398 171.782 37.8354L171.206 37.3234C171.632 36.8327 172.171 36.454 172.822 36.1874C173.483 35.9207 174.23 35.7874 175.062 35.7874C175.798 35.7874 176.432 35.91 176.966 36.1554C177.51 36.39 177.926 36.7314 178.214 37.1794C178.512 37.6167 178.662 38.1394 178.662 38.7474C178.662 39.11 178.608 39.4674 178.502 39.8194C178.406 40.1607 178.224 40.5234 177.958 40.9074C177.702 41.2914 177.328 41.7287 176.838 42.2194L172.39 46.6514L172.118 46.3314H179.206V47.0674H171.51ZM185.086 47.1474C184.233 47.1474 183.476 46.918 182.814 46.4594C182.153 46.0007 181.636 45.35 181.262 44.5074C180.889 43.654 180.702 42.6407 180.702 41.4674C180.702 40.294 180.889 39.286 181.262 38.4434C181.636 37.59 182.153 36.934 182.814 36.4754C183.476 36.0167 184.233 35.7874 185.086 35.7874C185.95 35.7874 186.708 36.0167 187.358 36.4754C188.02 36.934 188.537 37.59 188.91 38.4434C189.284 39.286 189.47 40.294 189.47 41.4674C189.47 42.6407 189.284 43.654 188.91 44.5074C188.537 45.35 188.02 46.0007 187.358 46.4594C186.708 46.918 185.95 47.1474 185.086 47.1474ZM185.086 46.3954C185.801 46.3954 186.425 46.2034 186.958 45.8194C187.492 45.4247 187.908 44.8594 188.206 44.1234C188.505 43.3874 188.654 42.502 188.654 41.4674C188.654 40.422 188.505 39.5367 188.206 38.8114C187.908 38.0754 187.492 37.5154 186.958 37.1314C186.425 36.7367 185.801 36.5394 185.086 36.5394C184.382 36.5394 183.758 36.7367 183.214 37.1314C182.681 37.5154 182.265 38.0754 181.966 38.8114C181.668 39.5367 181.518 40.422 181.518 41.4674C181.518 42.502 181.668 43.3874 181.966 44.1234C182.265 44.8594 182.681 45.4247 183.214 45.8194C183.758 46.2034 184.382 46.3954 185.086 46.3954ZM191.01 47.0674V46.4914L195.746 41.7874C196.194 41.3394 196.53 40.95 196.754 40.6194C196.978 40.278 197.127 39.9634 197.202 39.6754C197.287 39.3874 197.33 39.1047 197.33 38.8274C197.33 38.1234 197.09 37.5687 196.61 37.1634C196.13 36.7474 195.426 36.5394 194.498 36.5394C193.794 36.5394 193.175 36.646 192.642 36.8594C192.119 37.0727 191.666 37.398 191.282 37.8354L190.706 37.3234C191.132 36.8327 191.671 36.454 192.322 36.1874C192.983 35.9207 193.73 35.7874 194.562 35.7874C195.298 35.7874 195.932 35.91 196.466 36.1554C197.01 36.39 197.426 36.7314 197.714 37.1794C198.012 37.6167 198.162 38.1394 198.162 38.7474C198.162 39.11 198.108 39.4674 198.002 39.8194C197.906 40.1607 197.724 40.5234 197.458 40.9074C197.202 41.2914 196.828 41.7287 196.338 42.2194L191.89 46.6514L191.618 46.3314H198.706V47.0674H191.01ZM203.529 47.1474C202.708 47.1474 201.94 47.0087 201.225 46.7314C200.521 46.454 199.972 46.0914 199.577 45.6434L199.993 45.0194C200.334 45.414 200.814 45.7447 201.433 46.0114C202.062 46.2674 202.761 46.3954 203.529 46.3954C204.532 46.3954 205.294 46.1714 205.817 45.7234C206.35 45.2754 206.617 44.6727 206.617 43.9154C206.617 43.1687 206.35 42.5714 205.817 42.1234C205.294 41.6647 204.473 41.4354 203.353 41.4354H202.649V40.8434L206.217 36.2834L206.329 36.6034H199.993V35.8674H207.017V36.4434L203.465 41.0034L203.113 40.7474H203.465C204.798 40.7474 205.796 41.0407 206.457 41.6274C207.118 42.214 207.449 42.9767 207.449 43.9154C207.449 44.534 207.3 45.0887 207.001 45.5794C206.713 46.07 206.276 46.454 205.689 46.7314C205.113 47.0087 204.393 47.1474 203.529 47.1474Z" fill="black"/>
</svg>
