<svg width="34" height="34" viewBox="0 0 34 34" fill="none" xmlns="http://www.w3.org/2000/svg">
<g id="Frame" clip-path="url(#clip0_286_5557)">
<path id="Vector" d="M14.166 18.4168C14.166 19.1683 14.4645 19.8889 14.9959 20.4203C15.5272 20.9517 16.2479 21.2502 16.9993 21.2502C17.7508 21.2502 18.4715 20.9517 19.0028 20.4203C19.5342 19.8889 19.8327 19.1683 19.8327 18.4168C19.8327 17.6654 19.5342 16.9447 19.0028 16.4134C18.4715 15.882 17.7508 15.5835 16.9993 15.5835C16.2479 15.5835 15.5272 15.882 14.9959 16.4134C14.4645 16.9447 14.166 17.6654 14.166 18.4168Z" stroke="white" stroke-width="2" stroke-linecap="round" stroke-linejoin="round"/>
<path id="Vector_2" d="M11.334 29.75V28.3333C11.334 27.5819 11.6325 26.8612 12.1638 26.3299C12.6952 25.7985 13.4159 25.5 14.1673 25.5H19.834C20.5854 25.5 21.3061 25.7985 21.8375 26.3299C22.3688 26.8612 22.6673 27.5819 22.6673 28.3333V29.75" stroke="white" stroke-width="2" stroke-linecap="round" stroke-linejoin="round"/>
<path id="Vector_3" d="M21.25 7.08333C21.25 7.83478 21.5485 8.55545 22.0799 9.0868C22.6112 9.61816 23.3319 9.91667 24.0833 9.91667C24.8348 9.91667 25.5554 9.61816 26.0868 9.0868C26.6182 8.55545 26.9167 7.83478 26.9167 7.08333C26.9167 6.33189 26.6182 5.61122 26.0868 5.07986C25.5554 4.54851 24.8348 4.25 24.0833 4.25C23.3319 4.25 22.6112 4.54851 22.0799 5.07986C21.5485 5.61122 21.25 6.33189 21.25 7.08333Z" stroke="white" stroke-width="2" stroke-linecap="round" stroke-linejoin="round"/>
<path id="Vector_4" d="M24.084 14.1665H26.9173C27.6688 14.1665 28.3894 14.465 28.9208 14.9964C29.4521 15.5277 29.7507 16.2484 29.7507 16.9998V18.4165" stroke="white" stroke-width="2" stroke-linecap="round" stroke-linejoin="round"/>
<path id="Vector_5" d="M7.08398 7.08333C7.08398 7.83478 7.3825 8.55545 7.91385 9.0868C8.4452 9.61816 9.16587 9.91667 9.91732 9.91667C10.6688 9.91667 11.3894 9.61816 11.9208 9.0868C12.4521 8.55545 12.7507 7.83478 12.7507 7.08333C12.7507 6.33189 12.4521 5.61122 11.9208 5.07986C11.3894 4.54851 10.6688 4.25 9.91732 4.25C9.16587 4.25 8.4452 4.54851 7.91385 5.07986C7.3825 5.61122 7.08398 6.33189 7.08398 7.08333Z" stroke="white" stroke-width="2" stroke-linecap="round" stroke-linejoin="round"/>
<path id="Vector_6" d="M4.25 18.4165V16.9998C4.25 16.2484 4.54851 15.5277 5.07986 14.9964C5.61122 14.465 6.33189 14.1665 7.08333 14.1665H9.91667" stroke="white" stroke-width="2" stroke-linecap="round" stroke-linejoin="round"/>
</g>
<defs>
<clipPath id="clip0_286_5557">
<rect width="34" height="34" fill="white"/>
</clipPath>
</defs>
</svg>
