<svg width="60" height="61" viewBox="0 0 60 61" fill="none" xmlns="http://www.w3.org/2000/svg">
<g id="quotation 1" clip-path="url(#clip0_286_5659)">
<g id="Group">
<path id="Vector" d="M22.5 8H5.625C2.52319 8 0 10.5232 0 13.625V30.5C0 33.6018 2.52319 36.125 5.625 36.125H13.1937L10.3473 50.767C10.2402 51.3173 10.3848 51.8858 10.741 52.3179C11.0971 52.7501 11.6272 53 12.1875 53H18.262C19.8926 53 21.3419 51.9334 21.8353 50.3889L27.2937 37.4415C27.3248 37.3674 27.3514 37.2914 27.3724 37.2145C27.8723 35.4182 28.125 33.5606 28.125 31.6939V13.625C28.125 10.5232 25.6018 8 22.5 8Z" fill="#1D2131"/>
<path id="Vector_2" d="M54.375 8H37.5C34.3982 8 31.875 10.5232 31.875 13.625V30.5C31.875 33.6018 34.3982 36.125 37.5 36.125H45.0696L42.2223 50.767C42.1143 51.3173 42.2589 51.8858 42.616 52.3179C42.9712 52.7501 43.5022 53 44.0625 53H50.1379C51.7694 53 53.2178 51.9334 53.7103 50.388L59.1687 37.4415C59.1998 37.3674 59.2254 37.2914 59.2474 37.2145C59.7473 35.4164 60 33.5588 60 31.6939V13.625C60 10.5232 57.4768 8 54.375 8Z" fill="#1D2131"/>
</g>
</g>
<defs>
<clipPath id="clip0_286_5659">
<rect width="60" height="60" fill="white" transform="translate(0 0.5)"/>
</clipPath>
</defs>
</svg>
