<svg width="34" height="34" viewBox="0 0 34 34" fill="none" xmlns="http://www.w3.org/2000/svg">
<g id="Frame" clip-path="url(#clip0_286_5538)">
<path id="Vector" d="M17 17V17.0142" stroke="white" stroke-width="1.5" stroke-linecap="round" stroke-linejoin="round"/>
<path id="Vector_2" d="M12.9944 12.9936C7.46095 18.5257 4.7707 24.8044 6.98353 27.0186C9.19636 29.23 15.4835 26.5398 21.0085 21.0063M23.6775 18.0129C27.3424 13.3705 28.837 8.8017 27.018 6.9827C25.199 5.1637 20.6317 6.65687 15.9907 10.3218" stroke="white" stroke-width="2" stroke-linecap="round" stroke-linejoin="round"/>
<path id="Vector_3" d="M6.98353 6.98291C4.7707 9.19574 7.46095 15.4829 12.9944 21.0079C18.5265 26.54 24.8052 29.2302 27.0194 27.0174M26.9174 21.2502C25.8309 18.7087 23.7795 15.7648 21.0071 12.9938C18.2531 10.2384 15.2824 8.17433 12.7508 7.08349" stroke="white" stroke-width="2" stroke-linecap="round" stroke-linejoin="round"/>
<path id="Vector_4" d="M4.25 4.25L29.75 29.75" stroke="white" stroke-width="2" stroke-linecap="round" stroke-linejoin="round"/>
</g>
<defs>
<clipPath id="clip0_286_5538">
<rect width="34" height="34" fill="white"/>
</clipPath>
</defs>
</svg>
