<svg width="38" height="38" viewBox="0 0 38 38" fill="none" xmlns="http://www.w3.org/2000/svg">
<g id="Frame" clip-path="url(#clip0_286_6236)">
<path id="Vector" d="M4.75 11.0832C4.75 10.2433 5.08363 9.43786 5.6775 8.844C6.27136 8.25013 7.07681 7.9165 7.91667 7.9165H30.0833C30.9232 7.9165 31.7286 8.25013 32.3225 8.844C32.9164 9.43786 33.25 10.2433 33.25 11.0832V26.9165C33.25 27.7564 32.9164 28.5618 32.3225 29.1557C31.7286 29.7495 30.9232 30.0832 30.0833 30.0832H7.91667C7.07681 30.0832 6.27136 29.7495 5.6775 29.1557C5.08363 28.5618 4.75 27.7564 4.75 26.9165V11.0832Z" stroke="white" stroke-width="2.5" stroke-linecap="round" stroke-linejoin="round"/>
<path id="Vector_2" d="M9.5 12.6665H9.51583" stroke="white" stroke-width="2.5" stroke-linecap="round" stroke-linejoin="round"/>
<path id="Vector_3" d="M14.25 12.6665H14.2658" stroke="white" stroke-width="2.5" stroke-linecap="round" stroke-linejoin="round"/>
</g>
<defs>
<clipPath id="clip0_286_6236">
<rect width="38" height="38" fill="white"/>
</clipPath>
</defs>
</svg>
