<svg width="34" height="34" viewBox="0 0 34 34" fill="none" xmlns="http://www.w3.org/2000/svg">
<g id="Frame" clip-path="url(#clip0_286_5568)">
<path id="Vector" d="M8.5 12.75H17" stroke="white" stroke-width="2" stroke-linecap="round" stroke-linejoin="round"/>
<path id="Vector_2" d="M5.66602 7.0835H11.3327" stroke="white" stroke-width="2" stroke-linecap="round" stroke-linejoin="round"/>
<path id="Vector_3" d="M8.5 7.0835V22.6668C8.5 23.0426 8.64926 23.4029 8.91493 23.6686C9.18061 23.9342 9.54094 24.0835 9.91667 24.0835H17" stroke="white" stroke-width="2" stroke-linecap="round" stroke-linejoin="round"/>
<path id="Vector_4" d="M17 11.3332C17 10.9574 17.1493 10.5971 17.4149 10.3314C17.6806 10.0658 18.0409 9.9165 18.4167 9.9165H26.9167C27.2924 9.9165 27.6527 10.0658 27.9184 10.3314C28.1841 10.5971 28.3333 10.9574 28.3333 11.3332V14.1665C28.3333 14.5422 28.1841 14.9026 27.9184 15.1682C27.6527 15.4339 27.2924 15.5832 26.9167 15.5832H18.4167C18.0409 15.5832 17.6806 15.4339 17.4149 15.1682C17.1493 14.9026 17 14.5422 17 14.1665V11.3332Z" stroke="white" stroke-width="2" stroke-linecap="round" stroke-linejoin="round"/>
<path id="Vector_5" d="M17 22.6667C17 22.2909 17.1493 21.9306 17.4149 21.6649C17.6806 21.3993 18.0409 21.25 18.4167 21.25H26.9167C27.2924 21.25 27.6527 21.3993 27.9184 21.6649C28.1841 21.9306 28.3333 22.2909 28.3333 22.6667V25.5C28.3333 25.8757 28.1841 26.2361 27.9184 26.5017C27.6527 26.7674 27.2924 26.9167 26.9167 26.9167H18.4167C18.0409 26.9167 17.6806 26.7674 17.4149 26.5017C17.1493 26.2361 17 25.8757 17 25.5V22.6667Z" stroke="white" stroke-width="2" stroke-linecap="round" stroke-linejoin="round"/>
</g>
<defs>
<clipPath id="clip0_286_5568">
<rect width="34" height="34" fill="white"/>
</clipPath>
</defs>
</svg>
