<svg width="28" height="28" viewBox="0 0 28 28" fill="none" xmlns="http://www.w3.org/2000/svg">
<path fill-rule="evenodd" clip-rule="evenodd" d="M11.3073 6.99991C11.3073 6.82769 11.3944 6.46191 11.7483 6.13423C12.0901 5.81775 12.7516 5.47427 13.9996 5.47427C15.2476 5.47427 15.909 5.81775 16.2508 6.13423C16.6047 6.46191 16.6919 6.82769 16.6919 6.99991H18.3073C18.3073 6.39436 18.0444 5.59347 17.3483 4.94893C16.6401 4.29318 15.5516 3.85889 13.9996 3.85889C12.4476 3.85889 11.359 4.29318 10.6508 4.94893C9.95473 5.59347 9.69189 6.39436 9.69189 6.99991H11.3073ZM11.3073 6.99993V8.82013H16.6919V6.99993H18.3073V8.82013H21.0816C21.5277 8.82013 21.8893 9.18175 21.8893 9.62783V20.6609C21.8893 21.2953 21.6352 21.9023 21.185 22.3489C20.7351 22.7952 20.1262 23.0448 19.4927 23.0448H8.36981C7.73628 23.0448 7.12739 22.7952 6.67743 22.3489C6.22725 21.9023 5.97314 21.2953 5.97314 20.6609V9.62783C5.97314 9.18175 6.33476 8.82013 6.78084 8.82013H9.69189V6.99993H11.3073ZM9.69189 12.8333V10.4355H7.58853V20.6609C7.58853 20.8626 7.66924 21.0574 7.81504 21.202C7.96107 21.3469 8.1605 21.4294 8.36981 21.4294H19.4927C19.702 21.4294 19.9014 21.3469 20.0474 21.202C20.1932 21.0574 20.2739 20.8626 20.2739 20.6609V10.4355H18.3073V12.8333H16.6919V10.4355H11.3073V12.8333H9.69189Z" fill="#121212"/>
</svg>
