<svg width="40" height="60" viewBox="0 0 49 60" fill="none" xmlns="http://www.w3.org/2000/svg">
<path d="M45.2085 15.2082H36.3335V12.2498C36.3335 9.11144 35.0868 6.10159 32.8676 3.88241C30.6484 1.66323 27.6386 0.416504 24.5002 0.416504C21.3618 0.416504 18.3519 1.66323 16.1327 3.88241C13.9136 6.10159 12.6668 9.11144 12.6668 12.2498V15.2082H3.79183C3.00723 15.2082 2.25477 15.5199 1.69997 16.0746C1.14518 16.6294 0.833496 17.3819 0.833496 18.1665V50.7082C0.833496 53.062 1.76854 55.3194 3.43292 56.9837C5.09731 58.6481 7.3547 59.5832 9.7085 59.5832H39.2918C41.6456 59.5832 43.903 58.6481 45.5674 56.9837C47.2318 55.3194 48.1668 53.062 48.1668 50.7082V18.1665C48.1668 17.3819 47.8551 16.6294 47.3004 16.0746C46.7456 15.5199 45.9931 15.2082 45.2085 15.2082ZM18.5835 12.2498C18.5835 10.6806 19.2069 9.17571 20.3164 8.06612C21.426 6.95653 22.931 6.33317 24.5002 6.33317C26.0694 6.33317 27.5743 6.95653 28.6839 8.06612C29.7935 9.17571 30.4168 10.6806 30.4168 12.2498V15.2082H18.5835V12.2498ZM42.2502 50.7082C42.2502 51.4928 41.9385 52.2452 41.3837 52.8C40.8289 53.3548 40.0764 53.6665 39.2918 53.6665H9.7085C8.9239 53.6665 8.17143 53.3548 7.61664 52.8C7.06184 52.2452 6.75016 51.4928 6.75016 50.7082V21.1248H12.6668V24.0832C12.6668 24.8678 12.9785 25.6202 13.5333 26.175C14.0881 26.7298 14.8406 27.0415 15.6252 27.0415C16.4098 27.0415 17.1622 26.7298 17.717 26.175C18.2718 25.6202 18.5835 24.8678 18.5835 24.0832V21.1248H30.4168V24.0832C30.4168 24.8678 30.7285 25.6202 31.2833 26.175C31.8381 26.7298 32.5906 27.0415 33.3752 27.0415C34.1598 27.0415 34.9122 26.7298 35.467 26.175C36.0218 25.6202 36.3335 24.8678 36.3335 24.0832V21.1248H42.2502V50.7082Z" fill="#666666"/>
</svg>
