<svg width="115" height="115" viewBox="0 0 115 115" fill="none" xmlns="http://www.w3.org/2000/svg">
<path d="M57.5003 28.75C62.7712 28.75 67.0837 33.0625 67.0837 38.3334C67.0837 43.6042 62.7712 47.9167 57.5003 47.9167C52.2295 47.9167 47.917 43.6042 47.917 38.3334C47.917 33.0625 52.2295 28.75 57.5003 28.75ZM57.5003 76.6667C70.4378 76.6667 85.292 82.8479 86.2503 86.25H28.7503C29.8524 82.8 44.6107 76.6667 57.5003 76.6667ZM57.5003 19.1667C46.9107 19.1667 38.3337 27.7438 38.3337 38.3334C38.3337 48.9229 46.9107 57.5 57.5003 57.5C68.0899 57.5 76.667 48.9229 76.667 38.3334C76.667 27.7438 68.0899 19.1667 57.5003 19.1667ZM57.5003 67.0834C44.7066 67.0834 19.167 73.5042 19.167 86.25V95.8334H95.8337V86.25C95.8337 73.5042 70.2941 67.0834 57.5003 67.0834Z" fill="#3D3939"/>
</svg>
