<svg width="60" height="60" viewBox="0 0 60 60" fill="none" xmlns="http://www.w3.org/2000/svg">
<path d="M30 30C33.8788 30 37.5987 28.4592 40.3414 25.7164C43.0842 22.9737 44.625 19.2538 44.625 15.375C44.625 11.4962 43.0842 7.77628 40.3414 5.03356C37.5987 2.29084 33.8788 0.75 30 0.75C26.1212 0.75 22.4013 2.29084 19.6586 5.03356C16.9158 7.77628 15.375 11.4962 15.375 15.375C15.375 19.2538 16.9158 22.9737 19.6586 25.7164C22.4013 28.4592 26.1212 30 30 30ZM39.75 15.375C39.75 17.9609 38.7228 20.4408 36.8943 22.2693C35.0658 24.0978 32.5859 25.125 30 25.125C27.4141 25.125 24.9342 24.0978 23.1057 22.2693C21.2772 20.4408 20.25 17.9609 20.25 15.375C20.25 12.7891 21.2772 10.3092 23.1057 8.48071C24.9342 6.65223 27.4141 5.625 30 5.625C32.5859 5.625 35.0658 6.65223 36.8943 8.48071C38.7228 10.3092 39.75 12.7891 39.75 15.375ZM59.25 54.375C59.25 59.25 54.375 59.25 54.375 59.25H5.625C5.625 59.25 0.75 59.25 0.75 54.375C0.75 49.5 5.625 34.875 30 34.875C54.375 34.875 59.25 49.5 59.25 54.375ZM54.375 54.3555C54.3701 53.1563 53.6243 49.5487 50.319 46.2435C47.1405 43.065 41.1589 39.75 30 39.75C18.8363 39.75 12.8595 43.065 9.681 46.2435C6.37575 49.5487 5.63475 53.1563 5.625 54.3555H54.375Z" fill="#444444"/>
</svg>
