<svg width="102" height="102" viewBox="0 0 102 102" fill="none" xmlns="http://www.w3.org/2000/svg">
<path d="M93.5 37.5417H73.1425L54.5275 10.178C54.1372 9.6098 53.6099 9.14508 52.9925 8.82514C52.3751 8.5052 51.6868 8.33994 50.9886 8.34407C50.2905 8.3482 49.6042 8.52158 48.9907 8.8488C48.3773 9.17602 47.8558 9.64694 47.4725 10.2197L28.8575 37.5417H8.5C6.1625 37.5417 4.25 39.4188 4.25 41.713C4.25 42.0884 4.25 42.4638 4.42 42.8392L15.215 81.5071C16.1925 85.011 19.465 87.5972 23.375 87.5972H78.625C82.535 87.5972 85.8075 85.011 86.8275 81.5071L97.6225 42.8392L97.75 41.713C97.75 39.4188 95.8375 37.5417 93.5 37.5417ZM51 20.0222L62.9 37.5417H39.1L51 20.0222ZM78.625 79.2546H23.375L14.0675 45.8843H87.975L78.625 79.2546ZM51 54.2269C46.325 54.2269 42.5 57.981 42.5 62.5695C42.5 67.1579 46.325 70.912 51 70.912C55.675 70.912 59.5 67.1579 59.5 62.5695C59.5 57.981 55.675 54.2269 51 54.2269Z" fill="#3D3939"/>
</svg>
