<svg width="132" height="132" viewBox="0 0 132 132" fill="none" xmlns="http://www.w3.org/2000/svg">
<path d="M49.5 27.5C48.0413 27.5 46.6424 28.0795 45.6109 29.111C44.5795 30.1424 44 31.5414 44 33C44 34.4587 44.5795 35.8577 45.6109 36.8891C46.6424 37.9206 48.0413 38.5 49.5 38.5C50.9587 38.5 52.3576 37.9206 53.3891 36.8891C54.4205 35.8577 55 34.4587 55 33C55 31.5414 54.4205 30.1424 53.3891 29.111C52.3576 28.0795 50.9587 27.5 49.5 27.5ZM33.935 27.5C35.0713 24.2796 37.1786 21.4909 39.9663 19.5184C42.754 17.5458 46.085 16.4866 49.5 16.4866C52.915 16.4866 56.246 17.5458 59.0337 19.5184C61.8214 21.4909 63.9287 24.2796 65.065 27.5H104.5C105.959 27.5 107.358 28.0795 108.389 29.111C109.421 30.1424 110 31.5414 110 33C110 34.4587 109.421 35.8577 108.389 36.8891C107.358 37.9206 105.959 38.5 104.5 38.5H65.065C63.9287 41.7205 61.8214 44.5092 59.0337 46.4817C56.246 48.4543 52.915 49.5135 49.5 49.5135C46.085 49.5135 42.754 48.4543 39.9663 46.4817C37.1786 44.5092 35.0713 41.7205 33.935 38.5H27.5C26.0413 38.5 24.6424 37.9206 23.6109 36.8891C22.5795 35.8577 22 34.4587 22 33C22 31.5414 22.5795 30.1424 23.6109 29.111C24.6424 28.0795 26.0413 27.5 27.5 27.5H33.935ZM82.5 60.5001C81.0413 60.5001 79.6424 61.0795 78.6109 62.111C77.5795 63.1424 77 64.5414 77 66.0001C77 67.4587 77.5795 68.8577 78.6109 69.8891C79.6424 70.9206 81.0413 71.5001 82.5 71.5001C83.9587 71.5001 85.3576 70.9206 86.3891 69.8891C87.4205 68.8577 88 67.4587 88 66.0001C88 64.5414 87.4205 63.1424 86.3891 62.111C85.3576 61.0795 83.9587 60.5001 82.5 60.5001ZM66.935 60.5001C68.0713 57.2796 70.1786 54.4909 72.9663 52.5184C75.754 50.5458 79.085 49.4866 82.5 49.4866C85.915 49.4866 89.246 50.5458 92.0337 52.5184C94.8214 54.4909 96.9287 57.2796 98.065 60.5001H104.5C105.959 60.5001 107.358 61.0795 108.389 62.111C109.421 63.1424 110 64.5414 110 66.0001C110 67.4587 109.421 68.8577 108.389 69.8891C107.358 70.9206 105.959 71.5001 104.5 71.5001H98.065C96.9287 74.7205 94.8214 77.5092 92.0337 79.4817C89.246 81.4543 85.915 82.5135 82.5 82.5135C79.085 82.5135 75.754 81.4543 72.9663 79.4817C70.1786 77.5092 68.0713 74.7205 66.935 71.5001H27.5C26.0413 71.5001 24.6424 70.9206 23.6109 69.8891C22.5795 68.8577 22 67.4587 22 66.0001C22 64.5414 22.5795 63.1424 23.6109 62.111C24.6424 61.0795 26.0413 60.5001 27.5 60.5001H66.935ZM49.5 93.5001C48.0413 93.5001 46.6424 94.0795 45.6109 95.111C44.5795 96.1424 44 97.5414 44 99.0001C44 100.459 44.5795 101.858 45.6109 102.889C46.6424 103.921 48.0413 104.5 49.5 104.5C50.9587 104.5 52.3576 103.921 53.3891 102.889C54.4205 101.858 55 100.459 55 99.0001C55 97.5414 54.4205 96.1424 53.3891 95.111C52.3576 94.0795 50.9587 93.5001 49.5 93.5001ZM33.935 93.5001C35.0713 90.2796 37.1786 87.4909 39.9663 85.5184C42.754 83.5458 46.085 82.4866 49.5 82.4866C52.915 82.4866 56.246 83.5458 59.0337 85.5184C61.8214 87.4909 63.9287 90.2796 65.065 93.5001H104.5C105.959 93.5001 107.358 94.0795 108.389 95.111C109.421 96.1424 110 97.5414 110 99.0001C110 100.459 109.421 101.858 108.389 102.889C107.358 103.921 105.959 104.5 104.5 104.5H65.065C63.9287 107.72 61.8214 110.509 59.0337 112.482C56.246 114.454 52.915 115.514 49.5 115.514C46.085 115.514 42.754 114.454 39.9663 112.482C37.1786 110.509 35.0713 107.72 33.935 104.5H27.5C26.0413 104.5 24.6424 103.921 23.6109 102.889C22.5795 101.858 22 100.459 22 99.0001C22 97.5414 22.5795 96.1424 23.6109 95.111C24.6424 94.0795 26.0413 93.5001 27.5 93.5001H33.935Z" fill="black"/>
</svg>
