<svg width="20" height="21" viewBox="0 0 20 21" fill="none" xmlns="http://www.w3.org/2000/svg">
<path fill-rule="evenodd" clip-rule="evenodd" d="M9.91666 7.15754C9.91666 6.3061 10.6069 5.61588 11.4583 5.61588C12.3098 5.61588 13 6.3061 13 7.15754C13 8.00898 12.3098 8.69921 11.4583 8.69921C10.6069 8.69921 9.91666 8.00898 9.91666 7.15754ZM8.50983 7.90754C8.84385 9.22471 10.0373 10.1992 11.4583 10.1992C12.8794 10.1992 14.0728 9.22471 14.4068 7.90754H17.5C17.9142 7.90754 18.25 7.57175 18.25 7.15754C18.25 6.74333 17.9142 6.40754 17.5 6.40754H14.4068C14.0728 5.09037 12.8794 4.11588 11.4583 4.11588C10.0373 4.11588 8.84385 5.09037 8.50983 6.40754H2.5C2.08579 6.40754 1.75 6.74333 1.75 7.15754C1.75 7.57175 2.08579 7.90754 2.5 7.90754H8.50983ZM4.91667 13.8242C4.91667 12.9728 5.60689 12.2825 6.45833 12.2825C7.30977 12.2825 8 12.9728 8 13.8242C8 14.6756 7.30977 15.3659 6.45833 15.3659C5.60689 15.3659 4.91667 14.6756 4.91667 13.8242ZM6.45833 16.8659C5.03729 16.8659 3.84385 15.8914 3.50983 14.5742H2.5C2.08579 14.5742 1.75 14.2384 1.75 13.8242C1.75 13.41 2.08579 13.0742 2.5 13.0742H3.50983C3.84385 11.757 5.03729 10.7825 6.45833 10.7825C7.87937 10.7825 9.07281 11.757 9.40683 13.0742H17.5C17.9142 13.0742 18.25 13.41 18.25 13.8242C18.25 14.2384 17.9142 14.5742 17.5 14.5742H9.40683C9.07281 15.8914 7.87937 16.8659 6.45833 16.8659Z" fill="#121212"/>
</svg>
