<svg width="28" height="28" viewBox="0 0 28 28" fill="none" xmlns="http://www.w3.org/2000/svg">
<path fill-rule="evenodd" clip-rule="evenodd" d="M9.65584 9.33325C9.65584 7.20199 11.3836 5.47427 13.5148 5.47427C15.6461 5.47427 17.3738 7.20199 17.3738 9.33325C17.3738 11.4645 15.6461 13.1922 13.5148 13.1922C11.3836 13.1922 9.65584 11.4645 9.65584 9.33325ZM13.5148 3.85889C10.4914 3.85889 8.04045 6.30984 8.04045 9.33325C8.04045 12.3567 10.4914 14.8076 13.5148 14.8076C16.5382 14.8076 18.9892 12.3567 18.9892 9.33325C18.9892 6.30984 16.5382 3.85889 13.5148 3.85889ZM8.45268 19.3166C9.17638 18.5929 10.1579 18.1863 11.1814 18.1863H15.8481C16.8715 18.1863 17.8531 18.5929 18.5768 19.3166C19.3005 20.0403 19.707 21.0219 19.707 22.0453V24.3786C19.707 24.8247 20.0686 25.1863 20.5147 25.1863C20.9608 25.1863 21.3224 24.8247 21.3224 24.3786V22.0453C21.3224 20.5934 20.7457 19.201 19.719 18.1744C18.6924 17.1477 17.2999 16.571 15.8481 16.571H11.1814C9.7295 16.571 8.33707 17.1477 7.31043 18.1744C6.28379 19.201 5.70703 20.5934 5.70703 22.0453V24.3786C5.70703 24.8247 6.06865 25.1863 6.51472 25.1863C6.9608 25.1863 7.32242 24.8247 7.32242 24.3786V22.0453C7.32242 21.0219 7.72899 20.0403 8.45268 19.3166Z" fill="#121212"/>
</svg>
